<svg width="14" height="13" viewBox="0 0 14 13" fill="none" xmlns="http://www.w3.org/2000/svg">
<path fill-rule="evenodd" clip-rule="evenodd" d="M13.7317 6.48898C13.7282 6.27311 13.6265 6.07063 13.4554 5.93917L8.49309 0.851069C8.362 0.716769 8.18298 0.640054 7.99527 0.637803C7.80771 0.635536 7.62677 0.707895 7.49251 0.83898C7.35821 0.970065 7.28149 1.14909 7.27924 1.33679C7.27697 1.52448 7.34935 1.70528 7.48042 1.83956L11.3363 5.79275L1.01031 5.79275C0.821078 5.79003 0.638485 5.86344 0.503735 5.99629C0.368856 6.12927 0.292977 6.31068 0.292961 6.5C0.292961 6.68935 0.368855 6.87087 0.50375 7.00374C0.638485 7.1367 0.821078 7.21001 1.01029 7.2074L11.3363 7.2074L7.48042 11.1606C7.34933 11.2949 7.27699 11.4757 7.27924 11.6634C7.28147 11.851 7.35809 12.0301 7.49249 12.1612C7.62677 12.2922 7.8076 12.3647 7.99527 12.3624C8.18296 12.3601 8.362 12.2834 8.49309 12.149L13.4581 7.05844C13.6336 6.92215 13.735 6.71137 13.7317 6.48923L13.7317 6.48898Z" fill="white"/>
</svg>
