<svg width="45" height="45" viewBox="0 0 45 45" fill="none" xmlns="http://www.w3.org/2000/svg">
<g clip-path="url(#clip0_5_4607)">
<path fill-rule="evenodd" clip-rule="evenodd" d="M38.4093 6.59074C47.1958 15.3772 47.1963 29.6232 38.4093 38.4102C29.6228 47.1967 15.3768 47.1967 6.5898 38.4097C-2.19668 29.6227 -2.19668 15.3772 6.5903 6.59074C15.3768 -2.19626 29.6228 -2.19626 38.4093 6.59074ZM28.9843 27.3257L24.1583 22.5002L28.9843 17.6742C30.0763 16.5822 28.4173 14.9237 27.3258 16.0157L22.4998 20.8417L17.6738 16.0157C16.5818 14.9237 14.9233 16.5827 16.0148 17.6742L20.8413 22.5002L16.0153 27.3257C14.9233 28.4177 16.5823 30.0762 17.6743 28.9842L22.4998 24.1587L27.3258 28.9847C28.4173 30.0762 30.0763 28.4177 28.9843 27.3257ZM42.6538 22.5002C42.6538 11.3692 33.6308 2.34624 22.4998 2.34624C11.3693 2.34624 2.34582 11.3697 2.34582 22.5002C2.34582 33.6312 11.3688 42.6542 22.4998 42.6542C33.6303 42.6542 42.6538 33.6307 42.6538 22.5002Z" fill="white"/>
</g>
<defs>
<clipPath id="clip0_5_4607">
<rect width="45" height="45" fill="white"/>
</clipPath>
</defs>
</svg>
