<svg width="45" height="45" viewBox="0 0 45 45" fill="none" xmlns="http://www.w3.org/2000/svg">
<g filter="url(#filter0_d_5_757)">
<circle cx="22.5" cy="20.5" r="14.5" fill="#E80000"/>
</g>
<path d="M22.5 0C11.1967 0 2 9.19674 2 20.5C2 31.8033 11.1967 41 22.5 41C33.8033 41 43 31.8033 43 20.5C43 9.19674 33.8033 0 22.5 0ZM33.9574 15.1053L20.8559 28.104C20.0852 28.8747 18.8521 28.9261 18.0301 28.1554L11.094 21.8358C10.2719 21.0652 10.2206 19.7807 10.9398 18.9586C11.7105 18.1366 12.995 18.0852 13.817 18.8559L19.3145 23.891L31.0288 12.1767C31.8509 11.3546 33.1353 11.3546 33.9574 12.1767C34.7794 12.9987 34.7794 14.2832 33.9574 15.1053Z" fill="white"/>
<defs>
<filter id="filter0_d_5_757" x="0" y="0" width="45" height="45" filterUnits="userSpaceOnUse" color-interpolation-filters="sRGB">
<feFlood flood-opacity="0" result="BackgroundImageFix"/>
<feColorMatrix in="SourceAlpha" type="matrix" values="0 0 0 0 0 0 0 0 0 0 0 0 0 0 0 0 0 0 127 0" result="hardAlpha"/>
<feOffset dy="2"/>
<feGaussianBlur stdDeviation="4"/>
<feComposite in2="hardAlpha" operator="out"/>
<feColorMatrix type="matrix" values="0 0 0 0 1 0 0 0 0 0 0 0 0 0 0 0 0 0 0.75 0"/>
<feBlend mode="normal" in2="BackgroundImageFix" result="effect1_dropShadow_5_757"/>
<feBlend mode="normal" in="SourceGraphic" in2="effect1_dropShadow_5_757" result="shape"/>
</filter>
</defs>
</svg>
