<svg width="58" height="54" viewBox="0 0 58 54" fill="none" xmlns="http://www.w3.org/2000/svg">
<path d="M54.7854 12.8806C54.7854 13.3619 54.7854 13.8431 54.7854 14.3308C54.7854 15.6205 54.7854 16.9102 54.7854 18.1935C54.7854 20.0222 54.7854 21.8509 54.7854 23.6795C54.7854 25.8034 54.7854 27.9272 54.7854 30.0511C54.7854 32.2199 54.7854 34.3822 54.7854 36.551C54.7854 38.5208 54.7854 40.4843 54.7854 42.4541C54.7854 43.9491 54.7854 45.4442 54.7854 46.9392C54.7854 47.722 54.7854 48.5048 54.7854 49.2876C54.7854 49.3454 54.7854 49.3967 54.7854 49.4545C54.7854 49.4609 54.7854 49.4609 54.7854 49.4673C54.7854 49.5122 54.7789 49.5571 54.7789 49.6021C54.7918 49.7881 54.8495 49.262 54.8046 49.4416C54.7854 49.5251 54.7661 49.6085 54.7404 49.6919C54.7276 49.7304 54.7019 49.7753 54.7019 49.8138C54.7019 49.8138 54.8624 49.4994 54.7789 49.6277C54.734 49.6983 54.6955 49.7753 54.657 49.8523C54.6249 49.91 54.503 50.064 54.6634 49.8651C54.8239 49.6598 54.6955 49.8266 54.6506 49.8651C54.5929 49.9229 54.5223 49.9806 54.4709 50.0384C54.3747 50.1474 54.6249 49.9229 54.6314 49.9165C54.5993 49.9229 54.5544 49.9678 54.5287 49.987C54.4581 50.0255 54.3747 50.064 54.3041 50.1089C54.1758 50.1924 54.4902 50.032 54.4902 50.032C54.4389 50.0384 54.3811 50.0705 54.3234 50.0833C54.24 50.109 54.1501 50.1154 54.0667 50.141C54.0988 50.1282 54.4838 50.1154 54.2271 50.1089H54.1373H54.1309C54.0924 50.1089 54.0603 50.1089 54.0218 50.1089C53.4507 50.1089 52.8732 50.1089 52.3022 50.1089C51.1344 50.1089 49.9602 50.1089 48.7924 50.1089C47.169 50.1089 45.5521 50.1089 43.9287 50.1089C41.9845 50.1089 40.0467 50.1089 38.1026 50.1089C35.9595 50.1089 33.8228 50.1089 31.6797 50.1089C29.4917 50.1089 27.3101 50.1089 25.1221 50.1089C23.0175 50.1089 20.9064 50.1089 18.8018 50.1089C16.909 50.1089 15.0097 50.1089 13.1169 50.1089C11.5641 50.1089 10.0177 50.1089 8.46492 50.1089C7.38695 50.1089 6.3154 50.1089 5.23744 50.1089C4.78187 50.1089 4.31988 50.1154 3.86431 50.1089C3.8579 50.1089 3.85148 50.1089 3.83865 50.1089C3.79373 50.1089 3.74882 50.1025 3.7039 50.1025C3.54349 50.1089 3.91565 50.1346 3.90923 50.1346C3.87073 50.1218 3.8194 50.1218 3.7809 50.1089C3.69749 50.0897 3.61407 50.0576 3.53066 50.0384C3.37666 49.9999 3.71674 50.1218 3.71674 50.1218C3.67824 50.0897 3.60766 50.0704 3.56274 50.0448C3.49216 50.0063 3.42158 49.9357 3.351 49.91C3.60124 49.9935 3.58841 50.1154 3.47933 49.9999C3.44724 49.9678 3.41516 49.9421 3.3895 49.91C3.34458 49.8651 3.15209 49.6341 3.31891 49.8523C3.48574 50.0704 3.29325 49.7945 3.25475 49.7304C3.2355 49.6919 3.21625 49.6534 3.197 49.6149C3.11359 49.4866 3.274 49.801 3.274 49.801C3.26117 49.7175 3.21625 49.6341 3.197 49.5507C3.18417 49.5058 3.18417 49.4673 3.17134 49.4224C3.13284 49.2684 3.197 49.6341 3.197 49.6277C3.20984 49.5956 3.19059 49.4737 3.19059 49.4481C3.19059 49.3133 3.19059 49.1786 3.19059 49.0438C3.19059 48.1134 3.19059 47.1766 3.19059 46.2462C3.19059 44.6485 3.19059 43.0508 3.19059 41.4531C3.19059 39.4384 3.19059 37.43 3.19059 35.4153C3.19059 33.2401 3.19059 31.0585 3.19059 28.8833C3.19059 26.7915 3.19059 24.6998 3.19059 22.6144C3.19059 20.8563 3.19059 19.0982 3.19059 17.3337C3.19059 16.1723 3.19059 15.0173 3.19059 13.8559C3.19059 13.5736 3.19059 13.2977 3.19059 13.0154C3.19059 12.9641 3.19059 12.9127 3.19059 12.8678V12.8614C3.19059 12.8165 3.197 12.7716 3.197 12.7266C3.19059 12.5662 3.16492 12.9384 3.16492 12.932C3.18417 12.8678 3.19059 12.7844 3.20983 12.7202C3.22908 12.6496 3.33816 12.3737 3.22908 12.6304C3.12 12.8871 3.24833 12.6111 3.28042 12.5534C3.3125 12.4957 3.49216 12.2518 3.31891 12.47C3.14567 12.6881 3.36383 12.4315 3.41516 12.3802C3.44724 12.3545 3.47933 12.3288 3.51141 12.2967C3.60766 12.1877 3.35741 12.4122 3.351 12.4187C3.42799 12.3994 3.53707 12.3032 3.60124 12.2647C3.63332 12.2454 3.68465 12.2326 3.71674 12.2069C3.71674 12.2069 3.38308 12.3224 3.53066 12.2903C3.6269 12.2647 3.72315 12.2326 3.8194 12.2133C4.08247 12.1492 3.46649 12.2197 3.7424 12.2262C3.76165 12.2262 3.81298 12.2262 3.83223 12.2262H3.83865C3.87715 12.2262 3.91565 12.2262 3.95414 12.2262C4.16589 12.2262 4.37763 12.2262 4.58296 12.2262C5.48126 12.2262 6.38598 12.2262 7.28429 12.2262C8.70233 12.2262 10.1204 12.2262 11.5384 12.2262C13.3414 12.2262 15.1445 12.2262 16.9475 12.2262C19.0007 12.2262 21.0604 12.2262 23.1137 12.2262C25.3017 12.2262 27.4833 12.2262 29.6713 12.2262C31.8337 12.2262 33.996 12.2262 36.1584 12.2262C38.1731 12.2262 40.1879 12.2262 42.2027 12.2262C43.9351 12.2262 45.6676 12.2262 47.4 12.2262C48.7218 12.2262 50.05 12.2262 51.3718 12.2262C52.1418 12.2262 52.9117 12.2262 53.6817 12.2262C53.8165 12.2262 53.9512 12.2262 54.086 12.2262C54.0924 12.2262 54.0988 12.2262 54.1116 12.2262C54.1245 12.2262 54.1373 12.2262 54.1565 12.2262C54.195 12.2262 54.2528 12.239 54.2913 12.2326C54.2977 12.2326 53.9255 12.162 54.086 12.2069C54.1822 12.2326 54.2849 12.2582 54.3811 12.2775C54.6378 12.3352 54.0924 12.1107 54.3105 12.2454C54.3811 12.2903 54.4581 12.3352 54.5287 12.3737C54.7533 12.5021 54.2913 12.1427 54.4709 12.3288C54.5287 12.3866 54.5864 12.4507 54.6506 12.5085C54.8367 12.6881 54.4774 12.2262 54.6057 12.4507C54.6506 12.5341 54.7019 12.6304 54.7533 12.7074C54.8367 12.8357 54.6763 12.5213 54.6763 12.5213C54.6827 12.5598 54.7084 12.6047 54.7148 12.6432C54.7404 12.7266 54.7533 12.8101 54.7789 12.8935C54.8174 13.0475 54.7533 12.6817 54.7533 12.6881C54.7661 12.7331 54.7854 12.8614 54.7854 12.8806C54.8046 13.7212 55.5104 14.5233 56.3895 14.4848C57.2429 14.4463 58.0128 13.7789 57.9936 12.8806C57.9487 10.7632 56.2611 9.06284 54.1373 9.03076C54.0218 9.03076 53.9127 9.03076 53.7972 9.03076C53.0593 9.03076 52.3214 9.03076 51.5835 9.03076C50.2746 9.03076 48.9592 9.03076 47.6502 9.03076C45.9178 9.03076 44.1789 9.03076 42.4465 9.03076C40.4125 9.03076 38.372 9.03076 36.338 9.03076C34.1436 9.03076 31.9556 9.03076 29.7612 9.03076C27.5667 9.03076 25.3659 9.03076 23.1714 9.03076C21.0861 9.03076 19.0007 9.03076 16.9154 9.03076C15.0995 9.03076 13.2837 9.03076 11.4678 9.03076C10.0434 9.03076 8.61891 9.03076 7.19446 9.03076C6.30899 9.03076 5.42351 9.03076 4.53804 9.03076C4.33913 9.03076 4.14664 9.03076 3.94773 9.03076C2.91468 9.03718 1.95221 9.3965 1.19507 10.1023C0.393008 10.8466 0.0080205 11.9182 0.00160404 12.9897C0.00160404 13.2464 0.00160404 13.5095 0.00160404 13.7661C0.00160404 14.9018 0.00160404 16.044 0.00160404 17.1797C0.00160404 18.9378 0.00160404 20.7023 0.00160404 22.4604C0.00160404 24.5778 0.00160404 26.6889 0.00160404 28.8063C0.00160404 31.0071 0.00160404 33.2016 0.00160404 35.4024C0.00160404 37.4429 0.00160404 39.4833 0.00160404 41.5237C0.00160404 43.1278 0.00160404 44.732 0.00160404 46.3361C0.00160404 47.26 0.00160404 48.1776 0.00160404 49.1016C0.00160404 49.2812 -0.00481227 49.4609 0.00802065 49.6405C0.155599 51.6874 1.7918 53.2787 3.8579 53.3108C4.27497 53.3172 4.68562 53.3108 5.10269 53.3108C6.15499 53.3108 7.20729 53.3108 8.26601 53.3108C9.81237 53.3108 11.3523 53.3108 12.8987 53.3108C14.8108 53.3108 16.7229 53.3108 18.635 53.3108C20.7589 53.3108 22.8827 53.3108 25.0066 53.3108C27.2266 53.3108 29.4403 53.3108 31.6604 53.3108C33.8228 53.3108 35.9851 53.3108 38.1475 53.3108C40.1045 53.3108 42.0615 53.3108 44.0249 53.3108C45.6611 53.3108 47.2973 53.3108 48.9271 53.3108C50.0885 53.3108 51.2435 53.3108 52.4048 53.3108C52.9567 53.3108 53.5149 53.3108 54.0667 53.3108C55.1318 53.3043 56.197 52.9065 56.9285 52.1173C57.6471 51.3473 58 50.3784 58 49.3326C58 48.5818 58 47.8311 58 47.0868C58 45.5918 58 44.0967 58 42.6017C58 40.6318 58 38.6684 58 36.6985C58 34.5041 58 32.3033 58 30.1088C58 27.9529 58 25.797 58 23.641C58 21.7995 58 19.958 58 18.1101C58 16.8203 58 15.5371 58 14.2473C58 13.7854 58 13.3234 58 12.8678C58 12.0272 57.2621 11.2252 56.3959 11.2637C55.5168 11.3214 54.7854 11.9823 54.7854 12.8806Z" fill="#E80000"/>
<path d="M32.2507 22.4671C32.2507 23.436 32.2507 24.4113 32.2507 25.3802C32.2507 26.5159 32.2058 27.6644 32.2507 28.8001C32.2507 28.8194 32.2443 28.8451 32.2507 28.8643C32.1673 28.3767 32.7833 27.8056 33.2453 27.8698C33.1683 27.8569 33.0849 27.8698 33.0079 27.8698C32.5523 27.8698 32.0903 27.8698 31.6347 27.8698C30.2039 27.8698 28.773 27.8698 27.3421 27.8698C26.7518 27.8698 26.1551 27.8698 25.5648 27.8698C25.3081 27.8698 25.013 27.8313 24.7563 27.8698C25.2183 27.8056 25.8343 28.3767 25.7508 28.8643C25.7573 28.8451 25.7508 28.8194 25.7508 28.8001C25.7573 28.6462 25.7508 28.4922 25.7508 28.3382C25.7508 27.7222 25.7508 27.1062 25.7508 26.4902C25.7508 25.2326 25.7508 23.975 25.7508 22.7173C25.7508 22.7045 25.7508 22.4607 25.7508 22.4607C25.8086 22.4607 25.5904 23.0061 25.6161 22.9612C25.5327 23.1023 25.3979 23.2371 25.2568 23.3205C25.2696 23.3141 24.782 23.5194 24.7563 23.4552C24.7563 23.4616 24.8269 23.4552 24.8333 23.4552C25.2054 23.4745 25.5776 23.4552 25.9498 23.4552C27.3357 23.4552 28.7217 23.4552 30.1076 23.4552C31.1214 23.4552 32.1481 23.5001 33.1619 23.4552C33.1747 23.4552 33.2324 23.4616 33.2389 23.4552C33.2453 23.4488 32.9886 23.4231 32.9822 23.4167C32.533 23.3269 32.2764 22.897 32.2507 22.4671C32.3085 23.3012 32.9501 24.1097 33.8548 24.0712C34.6761 24.0327 35.5167 23.3654 35.459 22.4671C35.3755 21.2416 34.5093 20.2919 33.2453 20.2534C33.1683 20.2534 33.0849 20.2534 33.0079 20.2534C32.5266 20.2534 32.039 20.2534 31.5577 20.2534C30.0242 20.2534 28.4971 20.2534 26.9636 20.2534C26.3861 20.2534 25.815 20.2534 25.2375 20.2534C24.4996 20.2534 23.7938 20.3176 23.2163 20.8758C22.5811 21.4854 22.5426 22.2489 22.5426 23.051C22.5426 23.7311 22.5426 24.4113 22.5426 25.0914C22.5426 26.3298 22.5234 27.5618 22.5426 28.8001C22.5683 30.0899 23.5307 31.0523 24.8205 31.078C25.2119 31.0844 25.6033 31.078 25.9947 31.078C27.4897 31.078 28.9783 31.078 30.4734 31.078C31.3973 31.078 32.3213 31.1165 33.2453 31.078C34.4772 31.0331 35.4076 30.0963 35.459 28.8643C35.4654 28.7681 35.459 28.6782 35.459 28.582C35.459 28.0045 35.459 27.427 35.459 26.856C35.459 25.4828 35.459 24.1097 35.459 22.7366C35.459 22.6468 35.459 22.5569 35.459 22.4671C35.459 21.6265 34.7211 20.8245 33.8548 20.863C32.9822 20.9015 32.2507 21.5688 32.2507 22.4671Z" fill="#E80000"/>
<path d="M54.7853 12.6817C54.7853 13.5159 54.7853 14.3564 54.7853 15.1906C54.7853 16.0696 54.8238 16.9551 54.7725 17.8341C54.7661 17.9368 54.7597 18.0395 54.7468 18.1421C54.7404 18.1999 54.734 18.2576 54.7276 18.3154C54.7148 18.495 54.7597 18.0844 54.7597 18.1101C54.7083 18.3218 54.6891 18.54 54.6378 18.7581C54.5415 19.1688 54.4132 19.5602 54.2656 19.9516C54.1694 20.2018 54.4389 19.5858 54.2784 19.9195C54.2335 20.0093 54.195 20.0992 54.1501 20.189C54.0539 20.3815 53.9512 20.5676 53.8421 20.7472C53.7459 20.9012 53.6496 21.0552 53.5405 21.2092C53.4764 21.299 53.4058 21.3889 53.3416 21.4851C53.3288 21.4979 53.579 21.2028 53.4636 21.3247C53.4186 21.376 53.3737 21.4338 53.3288 21.4851C53.0721 21.7867 52.7962 22.069 52.5011 22.3257C52.4241 22.3898 52.3535 22.454 52.2765 22.5182C51.9942 22.7556 52.5203 22.3449 52.3022 22.4989C52.1289 22.6208 51.9557 22.7427 51.7824 22.8582C51.4295 23.0828 51.051 23.2304 50.6981 23.4357C50.6788 23.4486 51.0445 23.2946 50.8841 23.3587C50.8328 23.378 50.7751 23.4036 50.7237 23.4229C50.6275 23.4614 50.5376 23.4935 50.4414 23.5255C50.2361 23.5961 50.0307 23.6539 49.819 23.7116C49.6329 23.7565 49.4533 23.795 49.2672 23.8335C49.2094 23.8464 48.8309 23.8977 49.1324 23.8592C49.434 23.8207 49.0234 23.8656 48.9464 23.872C48.7154 23.8913 48.4844 23.8977 48.2534 23.8977C48.1058 23.8977 47.9646 23.8977 47.8171 23.8977C47.0663 23.8977 46.322 23.8977 45.5713 23.8977C43.2421 23.8977 40.9065 23.8977 38.5774 23.8977C37.031 23.8977 35.4718 23.8592 33.9254 23.8977C33.8998 23.8977 33.8741 23.8977 33.8484 23.8977C34.381 24.4303 34.92 24.9693 35.4525 25.5018C35.4525 24.9628 35.4525 24.4239 35.4525 23.8913C35.4525 23.2561 35.5424 22.5053 35.3755 21.8829C35.1125 20.914 34.2206 20.2852 33.2389 20.2596C33.149 20.2596 33.0592 20.2596 32.9694 20.2596C32.4817 20.2596 31.9877 20.2596 31.5 20.2596C29.9986 20.2596 28.4907 20.2596 26.9892 20.2596C26.4246 20.2596 25.8535 20.2596 25.2889 20.2596C24.7114 20.2596 24.166 20.2532 23.6334 20.5611C22.9019 20.991 22.5362 21.7803 22.5362 22.6016C22.5362 22.9224 22.5362 23.2496 22.5362 23.5705C22.5362 24.2121 22.5362 24.8538 22.5362 25.5018C23.0688 24.9693 23.6078 24.4303 24.1403 23.8977C21.5032 23.8977 18.866 23.8977 16.2288 23.8977C14.567 23.8977 12.8987 23.8977 11.2368 23.8977C10.8005 23.8977 10.3578 23.8977 9.92144 23.8977C9.85728 23.8977 9.7867 23.8977 9.72253 23.8977C9.42096 23.8977 9.1258 23.872 8.83064 23.8464C8.56757 23.8207 8.97822 23.8656 8.99747 23.872C8.91406 23.8528 8.82423 23.8464 8.7344 23.8271C8.56115 23.795 8.39432 23.763 8.22108 23.718C7.91309 23.641 7.61152 23.5512 7.31636 23.4357C7.23936 23.4036 7.15595 23.3716 7.07895 23.3395C7.54093 23.4935 7.25861 23.4165 7.14953 23.3651C6.99554 23.2946 6.84154 23.2176 6.69396 23.1341C6.41805 22.9866 6.15498 22.8197 5.90474 22.6465C5.78282 22.5631 5.45559 22.2423 5.82132 22.5952C5.69941 22.4797 5.55825 22.3834 5.43634 22.2679C5.20534 22.0626 4.98718 21.838 4.78186 21.607C4.69203 21.5044 4.60861 21.3825 4.51236 21.2862C4.83319 21.6134 4.63428 21.4466 4.55728 21.344C4.49312 21.2541 4.42895 21.1579 4.36479 21.068C4.19796 20.8242 4.05038 20.5676 3.90922 20.3045C3.83864 20.1633 3.77447 20.0222 3.70389 19.881C3.56273 19.5923 3.84505 20.2532 3.72956 19.9516C3.69747 19.8746 3.66539 19.7912 3.63973 19.7142C3.53065 19.419 3.44082 19.111 3.37023 18.803C3.33815 18.6619 3.30607 18.5207 3.2804 18.3731C3.26757 18.2897 3.25474 18.1999 3.23549 18.1101C3.34457 18.6298 3.25474 18.232 3.24191 18.0972C3.21624 17.7892 3.20982 17.4812 3.20982 17.1733C3.20982 16.3712 3.20982 15.5756 3.20982 14.7735C3.20982 14.0869 3.20341 13.4004 3.20982 12.7202C3.20982 12.7074 3.20982 12.6946 3.20982 12.6817C3.20982 12.701 3.21624 12.4892 3.21624 12.5021C3.27399 12.7651 3.15849 12.8421 3.20982 12.6304C3.22266 12.5726 3.26757 12.4892 3.26757 12.4251C3.23549 12.5021 3.20341 12.5791 3.17132 12.6496C3.19699 12.5983 3.21624 12.547 3.24832 12.5021C3.28682 12.4379 3.3574 12.3609 3.38307 12.2903C3.33815 12.4251 3.13924 12.5662 3.34457 12.3609C3.48573 12.2197 3.58198 12.2647 3.27399 12.3994C3.34457 12.3673 3.41515 12.3032 3.48573 12.2647C3.53065 12.239 3.59481 12.2197 3.63331 12.1877C3.33174 12.3994 3.38307 12.2839 3.56915 12.239C3.74881 12.1941 3.87714 12.2582 3.47932 12.239C3.53706 12.2454 3.60123 12.2326 3.65256 12.2326H3.65898C3.97338 12.2262 4.28779 12.2326 4.59578 12.2326C6.60413 12.2326 8.61248 12.2326 10.6208 12.2326C13.8611 12.2326 17.095 12.2326 20.3354 12.2326C24.1339 12.2326 27.926 12.2326 31.7246 12.2326C35.3306 12.2326 38.9431 12.2326 42.5491 12.2326C45.3082 12.2326 48.0609 12.2326 50.82 12.2326C51.9878 12.2326 53.162 12.2133 54.3298 12.2326C54.3362 12.2326 54.3426 12.2326 54.3426 12.2326C54.3234 12.2326 54.5415 12.2326 54.5159 12.239C54.4324 12.2262 54.349 12.2133 54.2592 12.2069C54.3169 12.2197 54.3683 12.2262 54.426 12.2454C54.4709 12.2582 54.5479 12.2967 54.5864 12.2967C54.5094 12.2647 54.4324 12.2326 54.3619 12.2005C54.4132 12.2262 54.4645 12.2454 54.5094 12.2775C54.5736 12.316 54.6506 12.3866 54.7212 12.4122C54.6891 12.3994 54.426 12.1427 54.5864 12.316C54.6313 12.3673 54.7019 12.4572 54.7597 12.4957C54.7083 12.4315 54.6634 12.3673 54.6121 12.3032C54.6442 12.3481 54.6763 12.393 54.7019 12.4443C54.734 12.4892 54.7533 12.5406 54.7853 12.5919C54.9393 12.855 54.6827 12.2197 54.7468 12.5213C54.7597 12.5919 54.7789 12.701 54.8046 12.7716C54.7918 12.6881 54.7789 12.6047 54.7725 12.5149C54.7789 12.5662 54.7853 12.624 54.7853 12.6817C54.8046 13.5223 55.5104 14.3243 56.3895 14.2858C57.2428 14.2473 58.0128 13.58 57.9936 12.6817C57.9487 10.6734 56.3574 9.06926 54.3426 9.03076C54.2592 9.03076 54.1822 9.03076 54.0988 9.03076C53.5341 9.03076 52.9759 9.03076 52.4113 9.03076C49.9922 9.03076 47.5668 9.03076 45.1478 9.03076C41.6123 9.03076 38.0769 9.03076 34.5414 9.03076C30.6594 9.03076 26.7775 9.03076 22.8955 9.03076C19.405 9.03076 15.9144 9.03076 12.4239 9.03076C10.069 9.03076 7.7206 9.03076 5.36575 9.03076C4.85244 9.03076 4.3327 9.03076 3.81939 9.03076C3.44723 9.03076 3.07508 9.06284 2.71576 9.15267C1.08597 9.58258 0.0144257 11.1033 0.00800923 12.7587C0.00159277 14.2602 0.00800923 15.768 0.00800923 17.2695C0.00800923 20.0029 1.12447 22.6914 3.16491 24.5329C5.01285 26.2012 7.36769 27.0931 9.85728 27.0931C11.0251 27.0931 12.1993 27.0931 13.3671 27.0931C16.7357 27.0931 20.1044 27.0931 23.473 27.0931C23.6976 27.0931 23.9222 27.0931 24.1403 27.0931C25.0065 27.0931 25.7444 26.3552 25.7444 25.489C25.7444 25.0078 25.7444 24.5201 25.7444 24.0389C25.7444 23.6924 25.7444 23.3395 25.7444 22.993C25.7444 22.8262 25.7701 22.6337 25.7444 22.4668C25.7637 22.5952 25.6803 22.8262 25.6097 22.9609C25.5391 23.0956 25.3915 23.2368 25.2504 23.3202C25.2953 23.2946 24.7435 23.5127 24.7435 23.455H24.7948C24.9103 23.4678 25.0386 23.455 25.1541 23.455C25.6546 23.455 26.1487 23.455 26.6492 23.455C28.0479 23.455 29.4532 23.455 30.8519 23.455C31.4166 23.455 31.9748 23.455 32.5395 23.455C32.7576 23.455 33.0143 23.4935 33.2324 23.455C32.9116 23.5127 32.5202 23.2176 32.3726 22.9609C32.3277 22.8903 32.2058 22.531 32.2379 22.4732C32.2122 22.5246 32.2379 22.6722 32.2379 22.7235C32.2379 23.0636 32.2379 23.4101 32.2379 23.7501C32.2379 24.3276 32.2379 24.9115 32.2379 25.489C32.2379 26.3552 32.9758 27.0931 33.842 27.0931C35.1831 27.0931 36.5177 27.0931 37.8587 27.0931C40.2585 27.0931 42.6582 27.0931 45.0644 27.0931C46.6685 27.0931 48.3047 27.1829 49.8896 26.9455C53.6496 26.3809 56.8514 23.3202 57.7112 19.6436C57.9807 18.4886 57.9807 17.3401 57.9807 16.1659C57.9807 15.0751 57.9807 13.9843 57.9807 12.8999C57.9807 12.8229 57.9807 12.7523 57.9807 12.6753C57.9807 11.8348 57.2428 11.0327 56.3766 11.0712C55.5168 11.1161 54.7853 11.7834 54.7853 12.6817Z" fill="#E80000"/>
<path d="M38.4362 9.03081C36.2995 9.03081 34.1628 9.03081 32.0261 9.03081C28.6511 9.03081 25.2696 9.03081 21.8945 9.03081C21.1182 9.03081 20.3418 9.03081 19.5654 9.03081C20.0979 9.56338 20.6369 10.1024 21.1695 10.6349C21.1695 8.33142 21.1695 6.02791 21.1695 3.7244C21.1695 3.60249 21.1695 3.48699 21.1695 3.36508C21.1695 3.35866 21.1695 3.35224 21.1695 3.34583C21.1695 3.37149 21.1759 3.22392 21.1759 3.21108C21.1759 3.00576 21.0604 3.62174 21.1695 3.33941C21.1823 3.30091 21.2208 3.21108 21.2208 3.179C21.2144 3.44849 21.0732 3.46774 21.1631 3.333C21.1951 3.28166 21.3556 3.07634 21.1759 3.28808C20.9834 3.50624 21.2016 3.27525 21.2401 3.23033C21.2786 3.18542 21.439 3.04426 21.2401 3.22392C21.0347 3.40999 21.2336 3.24958 21.285 3.21108C21.4261 3.12125 21.4005 3.26241 21.131 3.26883C21.1631 3.26883 21.2593 3.23033 21.2914 3.2175C21.5737 3.10842 20.9577 3.23033 21.1631 3.22392C21.1695 3.22392 21.3235 3.2175 21.2978 3.2175C21.3042 3.2175 21.3042 3.2175 21.3106 3.2175C21.3684 3.2175 21.4326 3.2175 21.4903 3.2175C22.3565 3.2175 23.2228 3.2175 24.0826 3.2175C27.0405 3.2175 29.9921 3.2175 32.9501 3.2175C34.0088 3.2175 35.0675 3.2175 36.1263 3.2175C36.3187 3.2175 36.5048 3.21108 36.6973 3.2175H36.7037C36.723 3.2175 36.7743 3.2175 36.7936 3.2175C37.0951 3.2175 36.4984 3.11484 36.6652 3.20467C36.7037 3.22392 36.8321 3.26883 36.8706 3.26241C36.8321 3.26241 36.5177 3.06992 36.7166 3.20467C36.7358 3.2175 36.8321 3.28808 36.8577 3.2945C36.6588 3.13408 36.6075 3.08917 36.6973 3.17258C36.7294 3.19825 36.7615 3.23033 36.7872 3.256C36.8192 3.28808 36.8641 3.35224 36.8962 3.37791C36.6652 3.21108 36.7102 3.12767 36.8128 3.2945C36.9219 3.48057 36.7807 3.43566 36.7743 3.179C36.7743 3.21108 36.8128 3.31375 36.8256 3.33941C36.9283 3.60249 36.7743 3.15333 36.8128 3.16617C36.8256 3.16617 36.8192 3.32016 36.8192 3.34583C36.8192 3.35224 36.8192 3.35866 36.8192 3.36508C36.8641 5.70709 36.8192 8.06193 36.8192 10.4039C36.8192 10.4809 36.8192 10.5515 36.8192 10.6285C36.8192 11.4691 37.5571 12.2711 38.4233 12.2326C39.2896 12.1941 40.0275 11.5268 40.0275 10.6285C40.0275 8.28009 40.0275 5.93808 40.0275 3.58965C40.0275 2.61435 39.7516 1.69038 39.0457 0.98457C38.3848 0.323674 37.493 0.00926822 36.5626 0.00285176C35.722 0.00285176 34.8879 0.00285176 34.0473 0.00285176C31.0059 0.00285176 27.9581 0.00285176 24.9167 0.00285176C23.8644 0.00285176 22.8057 0.00285176 21.7534 0.00285176C21.593 0.00285176 21.4326 -0.0035647 21.2786 0.00285176C19.437 0.0413505 17.9869 1.49789 17.942 3.33941C17.8907 5.68142 17.942 8.02985 17.942 10.3783C17.942 10.4617 17.942 10.5451 17.942 10.6285C17.942 11.4947 18.6799 12.2326 19.5461 12.2326C21.6828 12.2326 23.8195 12.2326 25.9562 12.2326C29.3312 12.2326 32.7127 12.2326 36.0878 12.2326C36.8641 12.2326 37.6405 12.2326 38.4169 12.2326C39.2575 12.2326 40.0595 11.4947 40.021 10.6285C40.0018 9.76871 39.3345 9.03081 38.4362 9.03081Z" fill="#E80000"/>
</svg>
