<svg width="44" height="44" viewBox="0 0 44 44" fill="none" xmlns="http://www.w3.org/2000/svg">
<g clip-path="url(#clip0_5_1112)">
<path d="M22 44C34.1503 44 44 34.1503 44 22C44 9.84974 34.1503 0 22 0C9.84974 0 0 9.84974 0 22C0 34.1503 9.84974 44 22 44Z" fill="#7B7B7B"/>
<path d="M15.989 27.9777V17.3291H28.0111V27.9777" fill="#F2F2F2"/>
<path d="M22 23.2488L15.9889 27.9781L15.8121 18.6079" fill="black" fill-opacity="0.05"/>
<path d="M15.989 27.9777H14.9724C14.442 27.9777 14 27.5357 14 26.9611V16.9722H15.989V27.9777Z" fill="#D54C3F"/>
<path d="M24.6961 27.978H28.0994V17.6797H14.3094" fill="black" fill-opacity="0.08"/>
<path d="M14.9724 16H29.0276L22 20.9945" fill="#F2F2F2"/>
<path d="M28.011 27.9777H29.0276C29.558 27.9777 30 27.5357 30 26.9611V16.9722H28.011V27.9777Z" fill="#B63524"/>
<path fill-rule="evenodd" clip-rule="evenodd" d="M14.1845 16.4026C14.4992 15.9674 15.1071 15.8698 15.5422 16.1846L22 20.8553L28.4578 16.1846C28.8929 15.8698 29.5008 15.9674 29.8155 16.4026C30.1302 16.8377 30.0326 17.4456 29.5975 17.7603L22 23.2554L14.4025 17.7603C13.9674 17.4456 13.8698 16.8377 14.1845 16.4026Z" fill="#DE5145"/>
</g>
<defs>
<clipPath id="clip0_5_1112">
<rect width="44" height="44" fill="white"/>
</clipPath>
</defs>
</svg>
