<svg width="59" height="58" viewBox="0 0 59 58" fill="none" xmlns="http://www.w3.org/2000/svg">
<path d="M14.8157 23.6884L19.0126 26.738C19.6054 27.1684 20.2851 27.3841 20.9649 27.3841C21.6435 27.3841 22.3233 27.1684 22.9172 26.738C24.1015 25.8773 24.576 24.4203 24.1224 23.0272L22.5181 18.0925C22.3847 17.6796 22.5309 17.2306 22.8812 16.9754L27.0793 13.9258C28.2636 13.0639 28.7381 11.6081 28.2845 10.215C27.8321 8.8218 26.5932 7.92048 25.127 7.92048H19.9383C19.5045 7.92048 19.1217 7.64324 18.9883 7.22912L17.384 2.29448C16.9316 0.90016 15.6915 0 14.2276 0C12.7637 0 11.5237 0.90016 11.0701 2.29448L9.46699 7.22796C9.33243 7.64208 8.95079 7.92048 8.51695 7.92048H3.32711C1.86087 7.92048 0.621986 8.82064 0.169586 10.215C-0.283974 11.6081 0.190466 13.0651 1.37483 13.9258L5.57287 16.9754C5.92435 17.2306 6.07051 17.6796 5.93595 18.0925L4.33167 23.0283C3.87927 24.4215 4.35371 25.8784 5.53923 26.7403C6.72359 27.5999 8.25595 27.6022 9.44031 26.7403L13.6383 23.6907C13.9933 23.4308 14.4654 23.4343 14.8157 23.6884ZM8.07847 24.8611C7.53443 25.2567 7.04259 24.9609 6.90339 24.8611C6.76535 24.7614 6.33151 24.3844 6.54031 23.744L8.14459 18.8082C8.59002 17.4371 8.10515 15.9454 6.93819 15.0974L2.74015 12.0478C2.19495 11.651 2.32371 11.0931 2.37591 10.9307C2.42927 10.7683 2.65315 10.2393 3.32711 10.2393H8.51695C9.95767 10.2393 11.2267 9.31828 11.6745 7.94484L13.2776 3.0102C13.4852 2.36988 14.0571 2.32 14.2276 2.32C14.3981 2.32 14.97 2.36988 15.1777 3.01136L16.7819 7.94484C17.2274 9.31712 18.4964 10.2393 19.9395 10.2393H25.1281C25.8021 10.2393 26.026 10.7683 26.0793 10.9307C26.1315 11.0931 26.2603 11.6522 25.7163 12.0478L21.5182 15.0974C20.3513 15.9454 19.8664 17.4371 20.3118 18.8082L21.9161 23.7429C22.1249 24.3832 21.6911 24.7602 21.553 24.86C21.415 24.9597 20.9243 25.2567 20.3768 24.86L16.1787 21.8092C15.5953 21.3858 14.912 21.1746 14.2276 21.1746C13.5432 21.1746 12.86 21.3869 12.2765 21.8103L8.07847 24.8611Z" fill="#E80000"/>
<path d="M57.8645 10.2138C57.4121 8.82064 56.1732 7.91932 54.7069 7.91932H49.5183C49.0844 7.91932 48.7016 7.64208 48.5682 7.22796L46.9639 2.29332C46.5115 0.90016 45.2715 0 43.8076 0C42.3437 0 41.1036 0.90016 40.6501 2.29448L39.0469 7.22796C38.9124 7.64208 38.5307 7.92048 38.0969 7.92048H32.9071C31.4408 7.92048 30.2019 8.82064 29.7495 10.215C29.296 11.6081 29.7704 13.0651 30.9548 13.9258L35.1528 16.9754C35.5043 17.2306 35.6505 17.6796 35.5159 18.0925L33.9116 23.0283C33.4592 24.4215 33.9337 25.8784 35.1192 26.7403C36.3035 27.5999 37.8359 27.6022 39.0203 26.7403L43.2183 23.6907C43.5709 23.4332 44.0431 23.4366 44.3934 23.6907L48.5903 26.7403C49.183 27.1707 49.8628 27.3864 50.5425 27.3864C51.2211 27.3864 51.9009 27.1707 52.4948 26.7403C53.6792 25.8796 54.1536 24.4226 53.7001 23.0295L52.0958 18.0948C51.9624 17.6819 52.1085 17.233 52.4589 16.9778L56.6569 13.9281C57.8436 13.0628 58.318 11.607 57.8645 10.2138ZM55.2951 12.0478L51.097 15.0974C49.9301 15.9454 49.4452 17.4371 49.8906 18.8082L51.4949 23.7429C51.7037 24.3832 51.2699 24.7602 51.1318 24.86C50.9938 24.9597 50.5031 25.2567 49.9556 24.86L45.7575 21.8092C45.1741 21.3858 44.4908 21.1746 43.8064 21.1746C43.122 21.1746 42.4388 21.3869 41.8553 21.8103L37.6573 24.86C37.1121 25.2555 36.6214 24.9597 36.4822 24.86C36.3441 24.7602 35.9103 24.3832 36.1191 23.7429L37.7234 18.8071C38.1688 17.436 37.6839 15.9442 36.517 15.0962L32.3189 12.0466C31.7737 11.651 31.9037 11.0919 31.9559 10.9295C32.0092 10.7671 32.2331 10.2382 32.9071 10.2382H38.0969C39.5376 10.2382 40.8067 9.31712 41.2544 7.94368L42.8575 3.00904C43.0652 2.36988 43.6371 2.32 43.8076 2.32C43.9781 2.32 44.55 2.36988 44.7576 3.01136L46.3619 7.94484C46.8073 9.31712 48.0764 10.2393 49.5194 10.2393H54.7081C55.3821 10.2393 55.6059 10.7683 55.6593 10.9307C55.7103 11.0931 55.8403 11.651 55.2951 12.0478Z" fill="#E80000"/>
<path d="M26.2116 26.9863C28.078 26.5699 30.0697 26.5803 31.9304 27.0165C32.0197 27.0373 32.1078 27.0466 32.196 27.0466C32.7226 27.0466 33.1982 26.6859 33.3247 26.1523C33.4708 25.5282 33.0834 24.9041 32.4605 24.7579C30.2588 24.2417 27.9121 24.2278 25.707 24.722C25.0817 24.8612 24.6873 25.4818 24.8277 26.107C24.9669 26.7323 25.5898 27.1255 26.2116 26.9863Z" fill="#E80000"/>
<path d="M29.0037 52.2002C21.9683 52.2002 16.2437 46.4756 16.2437 39.4402C16.2437 35.7815 17.8178 32.2934 20.5647 29.8702C21.0449 29.4468 21.0902 28.7136 20.6668 28.2334C20.2411 27.752 19.5091 27.7091 19.0289 28.1313C15.7843 30.9942 13.9237 35.1157 13.9237 39.4402C13.9237 47.755 20.6888 54.5202 29.0037 54.5202C37.3186 54.5202 44.0837 47.755 44.0837 39.4402C44.0837 35.1551 42.2509 31.058 39.0551 28.1986C38.576 27.7717 37.8441 27.8123 37.4172 28.2891C36.9903 28.7658 37.0309 29.5001 37.5077 29.927C40.2128 32.3468 41.7637 35.8152 41.7637 39.4402C41.7637 46.4756 36.0391 52.2002 29.0037 52.2002Z" fill="#E80000"/>
<path d="M32.7146 21.2511C31.5 21.0052 30.2519 20.8799 29.0037 20.8799C28.1674 20.8799 25.7952 21.149 25.2929 21.2511C24.6653 21.3787 24.2593 21.9912 24.3869 22.6187C24.5145 23.2463 25.1235 23.6581 25.7557 23.5247C26.0794 23.4586 28.3193 23.1999 29.0037 23.1999C30.0976 23.1999 31.1915 23.3089 32.2529 23.5247C32.3306 23.5409 32.4083 23.5479 32.4849 23.5479C33.0254 23.5479 33.5092 23.1686 33.6205 22.6187C33.7481 21.9912 33.3421 21.3787 32.7146 21.2511Z" fill="#E80000"/>
<path d="M42.3449 28.2101C41.8298 28.5894 41.7185 29.3155 42.0978 29.8317C44.1568 32.6308 45.2437 35.9531 45.2437 39.44C45.2437 48.3952 37.9589 55.68 29.0037 55.68C20.0485 55.68 12.7637 48.3952 12.7637 39.44C12.7637 35.8939 13.8866 32.5241 16.0106 29.6972C16.3945 29.1856 16.2913 28.4583 15.7797 28.0732C15.2682 27.6892 14.5397 27.7913 14.1557 28.304C11.7267 31.5358 10.4437 35.387 10.4437 39.44C10.4437 49.6735 18.7702 58 29.0037 58C39.2372 58 47.5637 49.6735 47.5637 39.44C47.5637 35.4554 46.3202 31.6576 43.9666 28.4583C43.5861 27.9421 42.8622 27.8284 42.3449 28.2101Z" fill="#E80000"/>
<path d="M31.5032 32H26.2532C26.0543 32 25.8635 32.079 25.7228 32.2197C25.5822 32.3603 25.5032 32.5511 25.5032 32.75V39.5H24.7532C24.5543 39.5 24.3635 39.579 24.2228 39.7197C24.0822 39.8603 24.0032 40.0511 24.0032 40.25C24.0032 40.4489 24.0822 40.6397 24.2228 40.7803C24.3635 40.921 24.5543 41 24.7532 41H25.5032V42.5H24.7532C24.5543 42.5 24.3635 42.579 24.2228 42.7197C24.0822 42.8603 24.0032 43.0511 24.0032 43.25C24.0032 43.4489 24.0822 43.6397 24.2228 43.7803C24.3635 43.921 24.5543 44 24.7532 44H25.5032V47.75C25.5032 47.9489 25.5822 48.1397 25.7228 48.2803C25.8635 48.421 26.0543 48.5 26.2532 48.5C26.4521 48.5 26.6429 48.421 26.7835 48.2803C26.9242 48.1397 27.0032 47.9489 27.0032 47.75V44H31.5032C31.7021 44 31.8929 43.921 32.0335 43.7803C32.1742 43.6397 32.2532 43.4489 32.2532 43.25C32.2532 43.0511 32.1742 42.8603 32.0335 42.7197C31.8929 42.579 31.7021 42.5 31.5032 42.5H27.0032V41H31.5032C32.6966 41 33.8412 40.5259 34.6852 39.682C35.5291 38.8381 36.0032 37.6935 36.0032 36.5C36.0032 35.3065 35.5291 34.1619 34.6852 33.318C33.8412 32.4741 32.6966 32 31.5032 32ZM31.5032 39.5H27.0032V33.5H31.5032C32.2988 33.5 33.0619 33.8161 33.6245 34.3787C34.1871 34.9413 34.5032 35.7044 34.5032 36.5C34.5032 37.2956 34.1871 38.0587 33.6245 38.6213C33.0619 39.1839 32.2988 39.5 31.5032 39.5Z" fill="#E80000"/>
</svg>
