<svg width="58" height="58" viewBox="0 0 58 58" fill="none" xmlns="http://www.w3.org/2000/svg">
<path d="M57.5596 23.9634C57.5576 23.9524 57.5496 23.9443 57.5479 23.9334C56.9645 20.6368 55.8105 17.4671 54.1379 14.567C54.1272 14.5451 54.1279 14.5209 54.1151 14.4994C54.1023 14.4779 54.0822 14.4667 54.0687 14.4468C53.2453 13.0313 52.3039 11.6877 51.2547 10.4303C51.2387 10.4076 51.2339 10.3803 51.2157 10.3588C51.1919 10.3375 51.1669 10.3175 51.141 10.2988C50.0918 9.05863 48.9412 7.90799 47.701 6.85881C47.6825 6.83296 47.6626 6.8081 47.6415 6.78431C47.6199 6.76601 47.5927 6.76131 47.5699 6.74521C46.3127 5.69611 44.9692 4.75488 43.5538 3.93151C43.5338 3.91791 43.5221 3.89711 43.5009 3.88491C43.4797 3.87271 43.4552 3.87281 43.4332 3.86211C40.5331 2.18944 37.3635 1.03547 34.0668 0.45211C34.056 0.44991 34.048 0.44211 34.0368 0.44041C34.0256 0.43871 34.0168 0.44271 34.0057 0.44121C30.695 -0.14707 27.3065 -0.14707 23.9957 0.44121C23.985 0.44271 23.9751 0.43851 23.9645 0.44041C23.9539 0.44231 23.9455 0.45041 23.9345 0.45211C20.6379 1.03547 17.4683 2.18943 14.5683 3.86211C14.5462 3.87271 14.5219 3.87211 14.5004 3.88501C14.4789 3.89791 14.4675 3.91801 14.4475 3.93161C13.0317 4.75498 11.6878 5.69628 10.4301 6.74551C10.4075 6.76151 10.3801 6.76621 10.359 6.78421C10.3377 6.80799 10.3177 6.83285 10.299 6.85871C9.05882 7.90786 7.90817 9.05851 6.85902 10.2987C6.8331 10.3174 6.80817 10.3374 6.78432 10.3587C6.76612 10.3803 6.76132 10.4075 6.74532 10.4302C5.69621 11.6875 4.75495 13.031 3.93152 14.4464C3.91792 14.4664 3.89712 14.4781 3.88492 14.4993C3.87272 14.5205 3.87282 14.545 3.86212 14.5669C2.18946 17.467 1.0355 20.6366 0.452117 23.9332C0.449917 23.9441 0.442117 23.9521 0.440417 23.9632C0.438717 23.9743 0.442717 23.9837 0.441217 23.9944C-0.147072 27.3051 -0.147072 30.6937 0.441217 34.0044C0.442717 34.0151 0.438517 34.025 0.440417 34.0356C0.442617 34.0478 0.450417 34.0573 0.452817 34.0693C1.0366 37.3647 2.19055 40.533 3.86282 43.4319C3.87352 43.4538 3.87282 43.478 3.88562 43.4995C3.90519 43.5279 3.92629 43.5551 3.94882 43.5812C4.76823 44.9861 5.7039 46.3199 6.74602 47.5686C6.76202 47.5913 6.76682 47.6186 6.78502 47.6401C6.80322 47.6616 6.83202 47.6711 6.85272 47.6917C7.90367 48.9352 9.05665 50.0887 10.2996 51.1403C10.3183 51.1662 10.3383 51.191 10.3596 51.2148C10.3851 51.2312 10.4114 51.2463 10.4384 51.2601C11.6936 52.3068 13.0346 53.2459 14.4473 54.0676C14.4673 54.0812 14.479 54.102 14.5002 54.1142C14.5325 54.1297 14.5655 54.1433 14.5993 54.1551C17.4909 55.8182 20.6496 56.966 23.9343 57.5474C23.9451 57.5496 23.9531 57.5574 23.9643 57.5591C23.9875 57.5631 24.01 57.5627 24.0331 57.5651C27.3193 58.1443 30.6815 58.1443 33.9677 57.5651C33.9908 57.5627 34.0133 57.5631 34.0365 57.5591C34.0475 57.5571 34.0555 57.5491 34.0665 57.5474C37.3512 56.966 40.5099 55.8182 43.4015 54.1551C43.4353 54.1433 43.4684 54.1297 43.5006 54.1142C43.5218 54.102 43.5335 54.0812 43.5535 54.0676C44.9662 53.2459 46.3073 52.3068 47.5624 51.2601C47.5894 51.2463 47.6157 51.2312 47.6412 51.2148C47.6623 51.191 47.6822 51.1662 47.7007 51.1403C48.9439 50.0888 50.0971 48.9352 51.1482 47.6917C51.1689 47.6711 51.1968 47.6629 51.2159 47.6401C51.235 47.6173 51.2389 47.5913 51.2549 47.5686C52.297 46.3199 53.2327 44.9861 54.0521 43.5812C54.0746 43.5551 54.0957 43.5279 54.1153 43.4995C54.1277 43.478 54.1274 43.4538 54.1381 43.4319C55.8104 40.533 56.9643 37.3647 57.5481 34.0693C57.5506 34.0573 57.5581 34.0478 57.5605 34.0356C57.5624 34.025 57.5582 34.0156 57.5597 34.0044C58.148 30.6937 58.148 27.3051 57.5597 23.9944C57.5569 23.9839 57.5611 23.974 57.5596 23.9634ZM54.6929 37.2873L50.9341 35.9195C51.1353 35.283 51.3058 34.6333 51.4516 33.9744L55.3957 34.6699C55.2058 35.5537 54.9712 36.4273 54.6929 37.2873ZM52.8586 41.6195L49.3917 39.6177C49.7017 39.0248 49.9888 38.4184 50.2472 37.7966L54.0063 39.1649C53.6652 40.0019 53.2822 40.8211 52.8586 41.6195ZM50.2973 45.5649L47.2338 42.9941C47.6421 42.4634 48.0269 41.9148 48.3881 41.3481L51.854 43.3495C51.3718 44.115 50.8529 44.8534 50.2973 45.5649ZM43.3496 51.8539L41.3484 48.388C41.9142 48.0264 42.4629 47.6416 42.9944 47.2337L45.5652 50.2972C44.854 50.8517 44.1154 51.3706 43.3496 51.8539ZM39.1652 54.0062L37.7969 50.2471C38.4187 49.9887 39.0251 49.7016 39.618 49.3916L41.6196 52.8585C40.8213 53.282 40.0021 53.6651 39.1652 54.0062ZM16.3796 52.8585L18.3814 49.3916C18.9743 49.7016 19.5807 49.9887 20.2025 50.2471L18.8342 54.0062C17.9973 53.6651 17.178 53.2821 16.3796 52.8585ZM12.4342 50.2972L15.005 47.2337C15.5358 47.642 16.0844 48.0267 16.651 48.388L14.6496 51.8539C13.8842 51.3716 13.1458 50.8527 12.4342 50.2972ZM22.0802 50.934C22.7167 51.1352 23.3664 51.3057 24.0253 51.4515L23.3296 55.3956C22.4457 55.2057 21.572 54.9711 20.7118 54.6928L22.0802 50.934ZM25.9954 51.7969C26.6554 51.8835 27.3234 51.9451 27.9998 51.9742V55.9742C27.0965 55.9413 26.1953 55.8631 25.2998 55.7398L25.9954 51.7969ZM29.9996 51.9742C30.676 51.9451 31.3438 51.8835 32.004 51.7969L32.6996 55.7395C31.8041 55.8628 30.903 55.941 29.9996 55.9739V51.9742ZM33.9741 51.4515C34.633 51.3057 35.2827 51.1352 35.9192 50.934L37.2874 54.6928C36.4272 54.9711 35.5535 55.2057 34.6696 55.3956L33.9741 51.4515ZM28.9996 49.9995C24.8462 49.9995 20.7861 48.7679 17.3326 46.4604C13.8792 44.1529 11.1876 40.8731 9.59815 37.0359C8.00871 33.1986 7.59284 28.9762 8.40313 24.9026C9.21342 20.829 11.2135 17.0872 14.1504 14.1503C17.0873 11.2134 20.8291 9.21331 24.9027 8.40302C28.9763 7.59273 33.1987 8.0086 37.036 9.59804C40.8732 11.1875 44.153 13.8791 46.4605 17.3325C48.768 20.786 49.9996 24.8461 49.9996 28.9995C49.9934 34.5671 47.7789 39.9049 43.842 43.8419C39.9051 47.7788 34.5672 49.9933 28.9996 49.9995ZM6.14522 43.3495L9.61112 41.3483C9.97272 41.9141 10.3575 42.4628 10.7654 42.9943L7.70192 45.5651C7.14745 44.8538 6.62855 44.1153 6.14522 43.3495ZM3.99292 39.1651L7.75202 37.7968C8.01042 38.4186 8.29752 39.025 8.60752 39.6179L5.14062 41.6195C4.71708 40.8212 4.33403 40.002 3.99292 39.1651ZM2.60352 34.6695L6.54762 33.974C6.69342 34.6329 6.86392 35.2826 7.06512 35.9191L3.30632 37.2873C3.02799 36.4271 2.79343 35.5534 2.60352 34.6695ZM3.30632 20.7117L7.06512 22.0795C6.86392 22.716 6.69342 23.3657 6.54762 24.0246L2.60352 23.3295C2.79343 22.4456 3.02799 21.5719 3.30632 20.7117ZM5.14062 16.3795L8.60752 18.3813C8.29752 18.9742 8.01042 19.5806 7.75202 20.2024L3.99292 18.8339C4.33403 17.997 4.71708 17.1779 5.14062 16.3795ZM7.70192 12.4341L10.7654 15.0049C10.3571 15.5356 9.97232 16.0843 9.61112 16.6509L6.14522 14.6495C6.62755 13.884 7.14645 13.1457 7.70192 12.4341ZM6.20192 25.9953C6.11532 26.6553 6.05372 27.3233 6.02462 27.9997H2.02462C2.05773 27.0963 2.13616 26.1951 2.25962 25.2995L6.20192 25.9953ZM2.02502 29.9995H6.02502C6.05412 30.6759 6.11572 31.3437 6.20232 32.0039L2.25962 32.6995C2.1363 31.804 2.058 30.9029 2.02502 29.9995ZM14.6496 6.14511L16.6508 9.61101C16.085 9.97261 15.5364 10.3574 15.0048 10.7653L12.434 7.70181C13.1454 7.14734 13.8839 6.62844 14.6496 6.14511ZM18.834 3.99281L20.2023 7.75191C19.5805 8.01031 18.9741 8.29741 18.3812 8.60741L16.3796 5.14051C17.178 4.71697 17.9971 4.33392 18.834 3.99281ZM41.6196 5.14051L39.6178 8.60741C39.0249 8.29741 38.4185 8.01031 37.7967 7.75191L39.165 3.99281C40.002 4.33391 40.8212 4.71697 41.6196 5.14051ZM45.565 7.70181L42.9942 10.7653C42.4636 10.357 41.9149 9.97221 41.3482 9.61101L43.3496 6.14511C44.1152 6.62744 44.8535 7.14634 45.565 7.70181ZM35.919 7.06501C35.2825 6.86381 34.6328 6.69331 33.9739 6.54751L34.6696 2.60341C35.5535 2.79332 36.4272 3.02788 37.2874 3.30621L35.919 7.06501ZM32.0038 6.20211C31.3438 6.11551 30.6758 6.05391 29.9994 6.02481V2.02481C30.9028 2.05773 31.8039 2.13596 32.6994 2.25921L32.0038 6.20211ZM27.9996 6.02481C27.3232 6.05391 26.6554 6.11551 25.9952 6.20211L25.2996 2.25951C26.1951 2.13619 27.0963 2.0579 27.9996 2.02491V6.02481ZM24.0251 6.54751C23.3662 6.69331 22.7165 6.86381 22.08 7.06501L20.7118 3.30621C21.572 3.02788 22.4457 2.79332 23.3296 2.60341L24.0251 6.54751ZM51.854 14.6495L48.3881 16.6507C48.0265 16.0849 47.6418 15.5362 47.2338 15.0047L50.2973 12.4339C50.8519 13.1452 51.3708 13.8838 51.854 14.6495ZM54.0063 18.8339L50.2472 20.2022C49.9888 19.5804 49.7017 18.974 49.3917 18.3811L52.8586 16.3795C53.2822 17.1779 53.6652 17.997 54.0063 18.8339ZM55.3957 23.3295L51.4516 24.025C51.3058 23.3661 51.1353 22.7164 50.9341 22.0799L54.6929 20.7117C54.9712 21.5719 55.2058 22.4456 55.3957 23.3295ZM51.9743 27.9995C51.9452 27.3231 51.8836 26.6553 51.797 25.9951L55.7396 25.2995C55.8629 26.195 55.9411 27.0962 55.974 27.9995H51.9743ZM51.797 32.0039C51.8836 31.3439 51.9452 30.6759 51.9743 29.9995H55.9743C55.9414 30.9029 55.8632 31.804 55.7399 32.6995L51.797 32.0039ZM49.0153 10.8995L45.9496 13.4717C45.4963 12.9772 45.0222 12.5032 44.5274 12.0495L47.1001 8.98381C47.7699 9.59001 48.4083 10.2286 49.0153 10.8995ZM10.8996 8.98381L13.4718 12.0495C12.9774 12.5028 12.5033 12.9769 12.0496 13.4717L8.98392 10.8995C9.59012 10.2294 10.2287 9.59088 10.8996 8.98381ZM8.98392 47.1L12.0496 44.5273C12.503 45.0218 12.977 45.4959 13.4718 45.9495L10.8996 49.0152C10.2296 48.409 9.59098 47.7706 8.98392 47.1ZM47.1001 49.0152L44.5274 45.9495C45.022 45.4962 45.496 45.0221 45.9496 44.5273L49.0153 47.1C48.4091 47.7697 47.7707 48.4081 47.1001 49.0152Z" fill="#E80000"/>
<path d="M30.9996 17.9995H23.9996C23.7344 17.9995 23.4801 18.1049 23.2925 18.2924C23.105 18.4799 22.9996 18.7343 22.9996 18.9995V27.9995H21.9996C21.7344 27.9995 21.4801 28.1049 21.2925 28.2924C21.105 28.4799 20.9996 28.7343 20.9996 28.9995C20.9996 29.2647 21.105 29.5191 21.2925 29.7066C21.4801 29.8942 21.7344 29.9995 21.9996 29.9995H22.9996V31.9995H21.9996C21.7344 31.9995 21.4801 32.1049 21.2925 32.2924C21.105 32.4799 20.9996 32.7343 20.9996 32.9995C20.9996 33.2647 21.105 33.5191 21.2925 33.7066C21.4801 33.8942 21.7344 33.9995 21.9996 33.9995H22.9996V38.9995C22.9996 39.2647 23.105 39.5191 23.2925 39.7066C23.4801 39.8942 23.7344 39.9995 23.9996 39.9995C24.2649 39.9995 24.5192 39.8942 24.7067 39.7066C24.8943 39.5191 24.9996 39.2647 24.9996 38.9995V33.9995H30.9996C31.2649 33.9995 31.5192 33.8942 31.7067 33.7066C31.8943 33.5191 31.9996 33.2647 31.9996 32.9995C31.9996 32.7343 31.8943 32.4799 31.7067 32.2924C31.5192 32.1049 31.2649 31.9995 30.9996 31.9995H24.9996V29.9995H30.9996C32.5909 29.9995 34.1171 29.3674 35.2423 28.2422C36.3675 27.1169 36.9996 25.5908 36.9996 23.9995C36.9996 22.4082 36.3675 20.8821 35.2423 19.7569C34.1171 18.6317 32.5909 17.9995 30.9996 17.9995ZM30.9996 27.9995H24.9996V19.9995H30.9996C32.0605 19.9995 33.0779 20.4209 33.8281 21.1711C34.5782 21.9212 34.9996 22.9386 34.9996 23.9995C34.9996 25.0604 34.5782 26.0778 33.8281 26.8279C33.0779 27.5781 32.0605 27.9995 30.9996 27.9995Z" fill="#E80000"/>
</svg>
