<svg width="44" height="44" viewBox="0 0 44 44" fill="none" xmlns="http://www.w3.org/2000/svg">
<g clip-path="url(#clip0_5_1052)">
<mask id="mask0_5_1052" style="mask-type:luminance" maskUnits="userSpaceOnUse" x="0" y="0" width="44" height="44">
<path d="M44 0H0V44H44V0Z" fill="white"/>
</mask>
<g mask="url(#mask0_5_1052)">
<path d="M22 44C34.1503 44 44 34.1503 44 22C44 9.84974 34.1503 0 22 0C9.84974 0 0 9.84974 0 22C0 34.1503 9.84974 44 22 44Z" fill="#665CAC"/>
<mask id="mask1_5_1052" style="mask-type:luminance" maskUnits="userSpaceOnUse" x="14" y="14" width="16" height="16">
<path d="M30 14H14V30H30V14Z" fill="white"/>
</mask>
<g mask="url(#mask1_5_1052)">
<path d="M29.4367 23.262C29.9141 19.244 29.2074 16.7073 27.9327 15.56C25.8754 13.6007 18.9281 13.31 16.4667 15.6473C15.3614 16.7907 14.9721 18.4687 14.9294 20.546C14.8867 22.624 14.8361 26.5167 18.4634 27.5727H18.4667L18.4634 29.1854C18.4634 29.1854 18.4387 29.8387 18.8561 29.97C19.3334 30.1247 19.5494 29.8214 21.0341 28.048C23.5167 28.2634 25.4234 27.77 25.6401 27.698C26.1414 27.53 28.9781 27.1547 29.4367 23.262ZM21.2787 26.9134C21.2787 26.9134 19.7074 28.8727 19.2187 29.3814C19.0587 29.5467 18.8834 29.5314 18.8861 29.2034C18.8861 28.988 18.8981 26.526 18.8981 26.526C15.8227 25.6447 16.0041 22.33 16.0374 20.596C16.0707 18.8614 16.3881 17.4407 17.3241 16.484C19.4834 14.4593 25.5747 14.912 27.1267 16.3707C29.0241 18.0527 28.3487 22.8047 28.3527 22.9667C27.9627 26.216 25.6641 26.422 25.2414 26.5627C25.0607 26.6227 23.3841 27.054 21.2787 26.9134Z" fill="white"/>
<path d="M22.1481 16.8643C21.8914 16.8643 21.8914 17.2643 22.1481 17.2677C24.1394 17.283 25.7794 18.671 25.7974 21.217C25.7974 21.4857 26.1907 21.4823 26.1874 21.2137C26.1661 18.4703 24.3747 16.8797 22.1481 16.8643Z" fill="white"/>
<path d="M24.7675 20.7954C24.7615 21.0607 25.1541 21.0734 25.1575 20.8047C25.1901 19.292 24.2575 18.046 22.5048 17.9147C22.2481 17.896 22.2215 18.2994 22.4775 18.318C23.9975 18.4334 24.7981 19.4707 24.7675 20.7954Z" fill="white"/>
<path d="M24.3473 22.5164C24.018 22.3257 23.6826 22.4444 23.544 22.6317L23.254 23.0071C23.1066 23.1977 22.8313 23.1724 22.8313 23.1724C20.822 22.6411 20.2846 20.5384 20.2846 20.5384C20.2846 20.5384 20.26 20.2537 20.444 20.1011L20.8066 19.8011C20.988 19.6571 21.1026 19.3104 20.918 18.9697C20.4246 18.0784 20.0933 17.7711 19.9246 17.5351C19.7473 17.3131 19.4806 17.2631 19.2033 17.4131H19.1973C18.6206 17.7504 17.9893 18.3817 18.1913 19.0317C18.536 19.7171 19.1693 21.9017 21.188 23.5524C22.1366 24.3331 23.638 25.1331 24.2753 25.3177L24.2813 25.3271C24.9093 25.5364 25.52 24.8804 25.846 24.2864V24.2817C25.9906 23.9944 25.9426 23.7224 25.7313 23.5444C25.3566 23.1791 24.7913 22.7757 24.3473 22.5164Z" fill="white"/>
<path d="M22.7794 19.4028C23.4201 19.4401 23.7307 19.7748 23.7641 20.4621C23.7761 20.7308 24.1661 20.7121 24.1541 20.4434C24.1114 19.5461 23.6434 19.0461 22.8007 18.9994C22.5441 18.9841 22.5201 19.3874 22.7794 19.4028Z" fill="white"/>
</g>
</g>
</g>
<defs>
<clipPath id="clip0_5_1052">
<rect width="44" height="44" fill="white"/>
</clipPath>
</defs>
</svg>
