<svg width="44" height="44" viewBox="0 0 44 44" fill="none" xmlns="http://www.w3.org/2000/svg">
<g clip-path="url(#clip0_5_1067)">
<path d="M22 44C34.1503 44 44 34.1503 44 22C44 9.84974 34.1503 0 22 0C9.84974 0 0 9.84974 0 22C0 34.1503 9.84974 44 22 44Z" fill="#2B68A0"/>
<g clip-path="url(#clip1_5_1067)">
<path d="M29.8574 25.5782C29.8144 25.5062 29.5484 24.9282 28.2683 23.7401C26.9282 22.496 27.1082 22.698 28.7223 20.5469C29.7054 19.2368 30.0984 18.4367 29.9754 18.0947C29.8584 17.7687 29.1353 17.8547 29.1353 17.8547L26.7312 17.8687C26.7312 17.8687 26.5531 17.8447 26.4201 17.9237C26.2911 18.0017 26.2081 18.1817 26.2081 18.1817C26.2081 18.1817 25.8271 19.1958 25.3191 20.0578C24.248 21.877 23.8189 21.973 23.6439 21.86C23.2369 21.5969 23.3389 20.8019 23.3389 20.2378C23.3389 18.4747 23.6059 17.7397 22.8179 17.5496C22.5559 17.4866 22.3638 17.4446 21.6948 17.4376C20.8367 17.4286 20.1097 17.4406 19.6986 17.6416C19.4246 17.7757 19.2136 18.0747 19.3426 18.0917C19.5016 18.1127 19.8616 18.1887 20.0527 18.4487C20.2997 18.7837 20.2907 19.5378 20.2907 19.5378C20.2907 19.5378 20.4327 21.6129 19.9597 21.871C19.6346 22.048 19.1896 21.6869 18.2345 20.0358C17.7455 19.1908 17.3755 18.2557 17.3755 18.2557C17.3755 18.2557 17.3045 18.0817 17.1775 17.9887C17.0234 17.8757 16.8074 17.8397 16.8074 17.8397L14.5213 17.8537C14.5213 17.8537 14.1782 17.8637 14.0522 18.0127C13.9402 18.1457 14.0432 18.4197 14.0432 18.4197C14.0432 18.4197 15.8334 22.607 17.8595 24.7182C19.7186 26.6533 21.8288 26.5263 21.8288 26.5263H22.7849C22.7849 26.5263 23.0739 26.4943 23.2209 26.3353C23.3569 26.1893 23.3519 25.9153 23.3519 25.9153C23.3519 25.9153 23.3329 24.6322 23.929 24.4432C24.516 24.2571 25.2701 25.6832 26.0691 26.2323C26.6732 26.6473 27.1322 26.5563 27.1322 26.5563L29.2693 26.5263C29.2693 26.5263 30.3874 26.4573 29.8574 25.5782Z" fill="white"/>
</g>
</g>
<defs>
<clipPath id="clip0_5_1067">
<rect width="44" height="44" fill="white"/>
</clipPath>
<clipPath id="clip1_5_1067">
<rect width="16" height="16" fill="white" transform="translate(14 14)"/>
</clipPath>
</defs>
</svg>
