<svg width="44" height="44" viewBox="0 0 44 44" fill="none" xmlns="http://www.w3.org/2000/svg">
<g clip-path="url(#clip0_5_1105)">
<path d="M22 44C34.1503 44 44 34.1503 44 22C44 9.84974 34.1503 0 22 0C9.84974 0 0 9.84974 0 22C0 34.1503 9.84974 44 22 44Z" fill="#28D34D"/>
<mask id="mask0_5_1105" style="mask-type:luminance" maskUnits="userSpaceOnUse" x="13" y="13" width="18" height="18">
<path d="M31 13H13V31H31V13Z" fill="white"/>
</mask>
<g mask="url(#mask0_5_1105)">
<path fill-rule="evenodd" clip-rule="evenodd" d="M27.9692 16.0061C26.3904 14.4255 24.2909 13.5546 22.0541 13.5537C17.445 13.5537 13.6938 17.3048 13.692 21.9151C13.6913 23.3889 14.0764 24.8275 14.8081 26.0956L13.6218 30.4287L18.0547 29.2659C19.2761 29.9322 20.6513 30.2833 22.0507 30.2837H22.0542C26.6628 30.2837 30.4143 26.5323 30.4161 21.9218C30.417 19.6874 29.548 17.5866 27.9692 16.0061ZM22.0541 28.8715H22.0512C20.8041 28.871 19.581 28.5358 18.5138 27.9027L18.2601 27.752L15.6295 28.4421L16.3317 25.8774L16.1664 25.6144C15.4706 24.5078 15.1032 23.2288 15.1038 21.9156C15.1053 18.0836 18.2232 14.966 22.0569 14.966C23.9133 14.9666 25.6583 15.6905 26.9705 17.0042C28.2827 18.3179 29.0049 20.0641 29.0043 21.9213C29.0027 25.7536 25.8849 28.8715 22.0541 28.8715ZM25.8664 23.6661C25.6575 23.5615 24.6302 23.0562 24.4387 22.9864C24.2473 22.9166 24.1078 22.8819 23.9687 23.091C23.8293 23.3001 23.429 23.7708 23.307 23.9101C23.1851 24.0496 23.0633 24.0671 22.8544 23.9625C22.6454 23.8579 21.9722 23.6372 21.1741 22.9254C20.553 22.3714 20.1337 21.6872 20.0117 21.4781C19.89 21.2688 20.0107 21.1666 20.1034 21.0517C20.3296 20.7708 20.5561 20.4763 20.6257 20.337C20.6954 20.1975 20.6605 20.0755 20.6082 19.9709C20.5561 19.8664 20.1382 18.838 19.9642 18.4195C19.7944 18.0122 19.6223 18.0672 19.494 18.0609C19.3722 18.0548 19.2329 18.0535 19.0935 18.0535C18.9543 18.0535 18.7279 18.1058 18.5363 18.315C18.3448 18.5242 17.8051 19.0296 17.8051 20.0581C17.8051 21.0865 18.5538 22.08 18.6583 22.2195C18.7627 22.3589 20.1316 24.4693 22.2275 25.3742C22.726 25.5897 23.1151 25.7182 23.4187 25.8145C23.9192 25.9735 24.3746 25.951 24.7347 25.8973C25.1362 25.8372 25.9707 25.3918 26.145 24.9038C26.3191 24.4157 26.3191 23.9974 26.2667 23.9101C26.2146 23.823 26.0753 23.7708 25.8664 23.6661Z" fill="white"/>
</g>
</g>
<defs>
<clipPath id="clip0_5_1105">
<rect width="44" height="44" fill="white"/>
</clipPath>
</defs>
</svg>
