<svg width="58" height="59" viewBox="0 0 58 59" fill="none" xmlns="http://www.w3.org/2000/svg">
<path d="M17.9837 48.0095L19.294 48.7529L22.2744 43.5L20.9641 42.7565L17.9837 48.0095Z" fill="#E80000"/>
<path d="M10.3869 39.9595L11.1481 41.2603L16.3588 38.2108L15.5976 36.9101L10.3869 39.9595Z" fill="#E80000"/>
<path d="M22.088 16.3229L19.0355 11.1128L17.7352 11.8746L20.7877 17.0847L22.088 16.3229Z" fill="#E80000"/>
<path d="M28.3753 45.1262L28.4151 51.1655L29.9229 51.1556L29.883 45.1163L28.3753 45.1262Z" fill="#E80000"/>
<path d="M16.2538 21.6798L11.002 18.6997L10.2579 20.011L15.5097 22.9911L16.2538 21.6798Z" fill="#E80000"/>
<path d="M13.7864 29.0569L7.74571 29.0811L7.75175 30.5902L13.7924 30.566L13.7864 29.0569Z" fill="#E80000"/>
<path d="M35.7266 43.5036L38.7072 48.7554L40.0173 48.0118L37.0367 42.76L35.7266 43.5036Z" fill="#E80000"/>
<path d="M49.5057 9.3605C44.0277 3.88245 36.7452 0.866211 28.9997 0.866211C21.2535 0.866211 13.971 3.88245 8.49361 9.3605C3.01624 14.8379 0 22.1203 0 29.8666C0 37.6121 3.01624 44.8945 8.49361 50.3719C13.971 55.8493 21.2535 58.8662 28.9997 58.8662C36.7452 58.8662 44.0277 55.8493 49.5057 50.3719C54.9824 44.8945 57.9993 37.6121 57.9993 29.8666C57.9993 22.1203 54.9824 14.8379 49.5057 9.3605ZM50.187 29.081L50.1808 30.5901L44.1395 30.5662L44.1463 29.0571L50.187 29.081ZM46.9968 18.7018L47.7408 20.0131L42.4885 22.9932L41.7445 21.6819L46.9968 18.7018ZM38.9622 11.1138L40.2626 11.8755L37.2103 17.0856L35.9091 16.3245L38.9622 11.1138ZM46.7091 47.576C41.9784 52.3073 35.6895 54.9123 28.999 54.9123C22.3084 54.9123 16.0195 52.3073 11.2889 47.576C6.55757 42.846 3.95255 36.5564 3.95255 29.8666C3.95255 23.176 6.55757 16.8871 11.2889 12.1558C16.0195 7.42515 22.3084 4.81944 28.999 4.81944C29.0488 4.81944 29.0985 4.82148 29.1476 4.82217V10.097V29.8659L50.6043 42.5534C49.5371 44.3633 48.2339 46.0518 46.7091 47.576Z" fill="#E80000"/>
</svg>
