<svg width="44" height="44" viewBox="0 0 44 44" fill="none" xmlns="http://www.w3.org/2000/svg">
<g clip-path="url(#clip0_5_1083)">
<path d="M22 44C34.1503 44 44 34.1503 44 22C44 9.84974 34.1503 0 22 0C9.84974 0 0 9.84974 0 22C0 34.1503 9.84974 44 22 44Z" fill="#FF0000"/>
<path d="M29.1831 18.2508C29.0103 17.6082 28.5036 17.1016 27.8611 16.9286C26.6873 16.6074 21.992 16.6074 21.992 16.6074C21.992 16.6074 17.2969 16.6074 16.1231 16.9164C15.493 17.0893 14.9739 17.6083 14.8011 18.2508C14.4922 19.4245 14.4922 21.8586 14.4922 21.8586C14.4922 21.8586 14.4922 24.305 14.8011 25.4664C14.9741 26.1089 15.4806 26.6155 16.1232 26.7885C17.3093 27.1098 21.9922 27.1098 21.9922 27.1098C21.9922 27.1098 26.6873 27.1098 27.8611 26.8008C28.5037 26.6279 29.0103 26.1213 29.1833 25.4788C29.4921 24.305 29.4921 21.871 29.4921 21.871C29.4921 21.871 29.5045 19.4245 29.1831 18.2508ZM20.4971 24.1073V19.6099L24.4015 21.8586L20.4971 24.1073Z" fill="white"/>
</g>
<defs>
<clipPath id="clip0_5_1083">
<rect width="44" height="44" fill="white"/>
</clipPath>
</defs>
</svg>
