<svg width="225" height="20" viewBox="0 0 225 20" fill="none" xmlns="http://www.w3.org/2000/svg">
<path d="M220.39 4.20801H224.262L222.172 16H217.75L218.916 9.35601L209.742 16H206.068L208.158 4.20801H212.58L211.436 10.676L220.39 4.20801Z" fill="white"/>
<path d="M202.14 4.20801C203.534 4.20801 204.509 4.55267 205.066 5.24201C205.638 5.91667 205.807 6.96534 205.572 8.38801L204.89 12.172C204.656 13.58 204.201 14.57 203.526 15.142C202.852 15.714 201.81 16 200.402 16H196.64C195.672 16 194.939 15.9413 194.44 15.824C193.942 15.692 193.458 15.4207 192.988 15.01L192.196 19.52H187.598L190.304 4.20801H194.154L194.286 5.52801C195.02 4.95601 195.65 4.59667 196.178 4.45001C196.706 4.28867 197.498 4.20801 198.554 4.20801H202.14ZM200.864 8.96001C200.938 8.50534 200.901 8.19001 200.754 8.01401C200.608 7.83801 200.307 7.75001 199.852 7.75001H196.442C195.724 7.75001 195.137 7.91134 194.682 8.23401L194.11 8.67401L193.604 11.556L194.022 11.974C194.345 12.2967 194.895 12.458 195.672 12.458H199.126C199.581 12.458 199.896 12.3847 200.072 12.238C200.248 12.0767 200.373 11.7687 200.446 11.314L200.864 8.96001Z" fill="white"/>
<path d="M184.382 4.20801H188.254L186.164 16H181.742L182.908 9.35601L173.734 16H170.06L172.15 4.20801H176.572L175.428 10.676L184.382 4.20801Z" fill="white"/>
<path d="M167.245 4.20801C169.122 4.20801 169.885 5.13934 169.533 7.00201L169.379 7.83801C169.261 8.45401 169.085 8.93801 168.851 9.29001C168.616 9.62734 168.286 9.86201 167.861 9.99401C168.799 10.3167 169.159 11.1087 168.939 12.37L168.741 13.448C168.579 14.372 168.264 15.032 167.795 15.428C167.34 15.8093 166.658 16 165.749 16H152.615L153.671 10.126H153.649L154.705 4.20801H167.245ZM158.819 7.04601L158.489 8.82801H163.901C164.179 8.82801 164.377 8.77667 164.495 8.67401C164.612 8.57134 164.693 8.38067 164.737 8.10201L164.803 7.77201C164.847 7.49334 164.817 7.30267 164.715 7.20001C164.627 7.09734 164.443 7.04601 164.165 7.04601H158.819ZM164.407 11.886C164.451 11.6073 164.429 11.4167 164.341 11.314C164.253 11.1967 164.062 11.138 163.769 11.138H158.071L157.719 13.162H163.461C163.739 13.162 163.937 13.118 164.055 13.03C164.172 12.9273 164.26 12.7367 164.319 12.458L164.407 11.886Z" fill="white"/>
<path d="M148.782 4.20801H152.654L150.564 16H146.142L147.308 9.35601L138.134 16H134.46L136.55 4.20801H140.972L139.828 10.676L148.782 4.20801Z" fill="white"/>
<path d="M115.837 16L116.475 12.48H117.135C117.546 12.48 117.839 12.4067 118.015 12.26C118.206 12.0987 118.352 11.8127 118.455 11.402L120.215 4.20801H134.537L132.425 16H127.827L129.279 7.86001H123.977L122.899 12.128C122.547 13.5067 122.019 14.4967 121.315 15.098C120.626 15.6993 119.621 16 118.301 16H115.837Z" fill="white"/>
<path d="M112.713 4.20801C114.106 4.20801 115.082 4.55267 115.639 5.24201C116.196 5.91667 116.358 6.95801 116.123 8.36601L115.727 10.742H104.551L104.419 11.468C104.346 11.9227 104.375 12.238 104.507 12.414C104.654 12.59 104.954 12.678 105.409 12.678H110.007C110.374 12.678 110.63 12.612 110.777 12.48C110.924 12.348 111.034 12.0987 111.107 11.732L111.151 11.512H115.595L115.375 12.678C115.155 13.8953 114.752 14.7533 114.165 15.252C113.578 15.7507 112.691 16 111.503 16H103.165C100.408 16 99.2711 14.6067 99.7551 11.82L100.415 8.03601C100.65 6.62801 101.104 5.63801 101.779 5.06601C102.454 4.49401 103.495 4.20801 104.903 4.20801H112.713ZM104.991 8.19001L104.947 8.49801H111.679L111.723 8.23401C111.796 7.77934 111.76 7.47134 111.613 7.31001C111.481 7.13401 111.188 7.04601 110.733 7.04601H106.333C105.893 7.04601 105.578 7.12667 105.387 7.28801C105.196 7.44934 105.064 7.75001 104.991 8.19001Z" fill="white"/>
<path d="M96.2919 11.9741H98.6019L97.4359 18.6401H92.9039L93.3659 16.0001H80.4299L79.9679 18.6401H75.4359L76.6019 11.9741H78.0099C78.4939 11.9741 78.8386 11.8861 79.0439 11.7101C79.2639 11.5194 79.4326 11.1748 79.5499 10.6761L81.9919 0.600098H98.3159L96.2919 11.9741ZM84.5879 10.2581C84.4412 10.8741 84.2432 11.4461 83.9939 11.9741H91.4079L92.6839 4.8021H85.9519L84.5879 10.2581Z" fill="white"/>
<path d="M73.8454 12.48H75.9794L74.8794 18.64H70.6334L71.0954 16H60.2494L59.7874 18.64H55.5414L56.6194 12.48H57.9394C58.35 12.48 58.6434 12.4067 58.8194 12.26C58.9954 12.0987 59.1347 11.8127 59.2374 11.402L60.9754 4.20801H75.2974L73.8454 12.48ZM64.0114 10.874C63.8647 11.446 63.674 11.9813 63.4394 12.48H69.2474L70.0614 7.86001H64.7594L64.0114 10.874Z" fill="#E80000"/>
<path d="M52.867 4.20801C54.2603 4.20801 55.2356 4.55267 55.793 5.24201C56.365 5.91667 56.5336 6.96534 56.299 8.38801L55.617 12.172C55.3823 13.58 54.9276 14.57 54.253 15.142C53.5783 15.714 52.537 16 51.129 16H47.367C46.399 16 45.6656 15.9413 45.167 15.824C44.6683 15.692 44.1843 15.4207 43.715 15.01L42.923 19.52H38.325L41.031 4.20801H44.881L45.013 5.52801C45.7463 4.95601 46.377 4.59667 46.905 4.45001C47.433 4.28867 48.225 4.20801 49.281 4.20801H52.867ZM51.591 8.96001C51.6643 8.50534 51.6276 8.19001 51.481 8.01401C51.3343 7.83801 51.0336 7.75001 50.579 7.75001H47.169C46.4503 7.75001 45.8636 7.91134 45.409 8.23401L44.837 8.67401L44.331 11.556L44.749 11.974C45.0716 12.2967 45.6216 12.458 46.399 12.458H49.853C50.3076 12.458 50.623 12.3847 50.799 12.238C50.975 12.0767 51.0996 11.7687 51.173 11.314L51.591 8.96001Z" fill="#E80000"/>
<path d="M25.3072 16C22.5059 16 21.3472 14.592 21.8312 11.776L22.4912 7.99201C22.7259 6.58401 23.1732 5.60134 23.8332 5.04401C24.5079 4.48667 25.5492 4.20801 26.9572 4.20801H34.9432C37.7445 4.20801 38.9032 5.61601 38.4192 8.43201L37.7592 12.216C37.5245 13.624 37.0699 14.6067 36.3952 15.164C35.7352 15.7213 34.7012 16 33.2932 16H25.3072ZM27.5512 12.458H31.9732C32.4279 12.458 32.7432 12.3847 32.9192 12.238C33.1099 12.0767 33.2419 11.7687 33.3152 11.314L33.7332 8.96001C33.8065 8.50534 33.7625 8.19001 33.6012 8.01401C33.4545 7.83801 33.1539 7.75001 32.6992 7.75001H28.2772C27.8225 7.75001 27.4999 7.83067 27.3092 7.99201C27.1332 8.13867 27.0085 8.43934 26.9352 8.89401L26.5172 11.248C26.4439 11.7027 26.4805 12.018 26.6272 12.194C26.7885 12.37 27.0965 12.458 27.5512 12.458Z" fill="#E80000"/>
<path d="M16.994 0.600098H21.878L19.15 16.0001H14.266L15.3 10.1481H6.89603L5.86203 16.0001H0.978027L3.70603 0.600098H8.59003L7.64403 5.9241H16.048L16.994 0.600098Z" fill="#E80000"/>
</svg>
