<svg width="225" height="20" viewBox="0 0 225 20" fill="none" xmlns="http://www.w3.org/2000/svg">
<path d="M16.994 0.599999H21.878L19.15 16H14.266L15.3 10.148H6.896L5.862 16H0.978L3.706 0.599999H8.59L7.644 5.924H16.048L16.994 0.599999ZM25.3073 16C22.5059 16 21.3472 14.592 21.8313 11.776L22.4913 7.992C22.7259 6.584 23.1733 5.60133 23.8333 5.044C24.5079 4.48667 25.5493 4.208 26.9573 4.208H34.9433C37.7446 4.208 38.9033 5.616 38.4193 8.432L37.7593 12.216C37.5246 13.624 37.0699 14.6067 36.3953 15.164C35.7353 15.7213 34.7013 16 33.2933 16H25.3073ZM27.5513 12.458H31.9733C32.4279 12.458 32.7433 12.3847 32.9193 12.238C33.1099 12.0767 33.2419 11.7687 33.3153 11.314L33.7333 8.96C33.8066 8.50533 33.7626 8.19 33.6013 8.014C33.4546 7.838 33.1539 7.75 32.6993 7.75H28.2773C27.8226 7.75 27.4999 7.83067 27.3093 7.992C27.1333 8.13867 27.0086 8.43933 26.9352 8.894L26.5173 11.248C26.4439 11.7027 26.4806 12.018 26.6273 12.194C26.7886 12.37 27.0966 12.458 27.5513 12.458ZM52.8669 4.208C54.2602 4.208 55.2356 4.55267 55.7929 5.242C56.3649 5.91667 56.5336 6.96533 56.2989 8.388L55.6169 12.172C55.3822 13.58 54.9276 14.57 54.2529 15.142C53.5782 15.714 52.5369 16 51.1289 16H47.3669C46.3989 16 45.6656 15.9413 45.1669 15.824C44.6682 15.692 44.1842 15.4207 43.7149 15.01L42.9229 19.52H38.3249L41.0309 4.208H44.8809L45.0129 5.528C45.7462 4.956 46.3769 4.59667 46.9049 4.45C47.4329 4.28867 48.2249 4.208 49.2809 4.208H52.8669ZM51.5909 8.96C51.6642 8.50533 51.6276 8.19 51.4809 8.014C51.3342 7.838 51.0336 7.75 50.5789 7.75H47.1689C46.4502 7.75 45.8636 7.91133 45.4089 8.234L44.8369 8.674L44.3309 11.556L44.7489 11.974C45.0716 12.2967 45.6216 12.458 46.3989 12.458H49.8529C50.3076 12.458 50.6229 12.3847 50.7989 12.238C50.9749 12.0767 51.0996 11.7687 51.1729 11.314L51.5909 8.96ZM73.8454 12.48H75.9794L74.8794 18.64H70.6334L71.0954 16H60.2494L59.7874 18.64H55.5414L56.6194 12.48H57.9394C58.3501 12.48 58.6434 12.4067 58.8194 12.26C58.9954 12.0987 59.1348 11.8127 59.2374 11.402L60.9754 4.208H75.2974L73.8454 12.48ZM64.0114 10.874C63.8648 11.446 63.6741 11.9813 63.4394 12.48H69.2474L70.0614 7.86H64.7594L64.0114 10.874Z" fill="#E80000"/>
<path d="M96.292 11.974H98.602L97.436 18.64H92.904L93.366 16H80.43L79.968 18.64H75.436L76.602 11.974H78.01C78.494 11.974 78.8386 11.886 79.044 11.71C79.264 11.5193 79.4326 11.1747 79.55 10.676L81.992 0.599999H98.316L96.292 11.974ZM84.588 10.258C84.4413 10.874 84.2433 11.446 83.994 11.974H91.408L92.684 4.802H85.952L84.588 10.258ZM112.713 4.208C114.106 4.208 115.082 4.55267 115.639 5.242C116.196 5.91667 116.358 6.958 116.123 8.366L115.727 10.742H104.551L104.419 11.468C104.346 11.9227 104.375 12.238 104.507 12.414C104.654 12.59 104.954 12.678 105.409 12.678H110.007C110.374 12.678 110.63 12.612 110.777 12.48C110.924 12.348 111.034 12.0987 111.107 11.732L111.151 11.512H115.595L115.375 12.678C115.155 13.8953 114.752 14.7533 114.165 15.252C113.578 15.7507 112.691 16 111.503 16H103.165C100.408 16 99.2711 14.6067 99.7551 11.82L100.415 8.036C100.65 6.628 101.104 5.638 101.779 5.066C102.454 4.494 103.495 4.208 104.903 4.208H112.713ZM104.991 8.19L104.947 8.498H111.679L111.723 8.234C111.796 7.77933 111.76 7.47133 111.613 7.31C111.481 7.134 111.188 7.046 110.733 7.046H106.333C105.893 7.046 105.578 7.12667 105.387 7.288C105.196 7.44933 105.064 7.75 104.991 8.19ZM115.837 16L116.475 12.48H117.135C117.546 12.48 117.839 12.4067 118.015 12.26C118.206 12.0987 118.352 11.8127 118.455 11.402L120.215 4.208H134.537L132.425 16H127.827L129.279 7.86H123.977L122.899 12.128C122.547 13.5067 122.019 14.4967 121.315 15.098C120.626 15.6993 119.621 16 118.301 16H115.837ZM148.782 4.208H152.654L150.564 16H146.142L147.308 9.356L138.134 16H134.46L136.55 4.208H140.972L139.828 10.676L148.782 4.208ZM167.245 4.208C169.122 4.208 169.885 5.13933 169.533 7.002L169.379 7.838C169.261 8.454 169.085 8.938 168.851 9.29C168.616 9.62733 168.286 9.862 167.861 9.994C168.799 10.3167 169.159 11.1087 168.939 12.37L168.741 13.448C168.579 14.372 168.264 15.032 167.795 15.428C167.34 15.8093 166.658 16 165.749 16H152.615L153.671 10.126H153.649L154.705 4.208H167.245ZM158.819 7.046L158.489 8.828H163.901C164.179 8.828 164.377 8.77667 164.495 8.674C164.612 8.57133 164.693 8.38067 164.737 8.102L164.803 7.772C164.847 7.49333 164.817 7.30267 164.715 7.2C164.627 7.09733 164.443 7.046 164.165 7.046H158.819ZM164.407 11.886C164.451 11.6073 164.429 11.4167 164.341 11.314C164.253 11.1967 164.062 11.138 163.769 11.138H158.071L157.719 13.162H163.461C163.739 13.162 163.937 13.118 164.055 13.03C164.172 12.9273 164.26 12.7367 164.319 12.458L164.407 11.886ZM184.382 4.208H188.254L186.164 16H181.742L182.908 9.356L173.734 16H170.06L172.15 4.208H176.572L175.428 10.676L184.382 4.208ZM202.14 4.208C203.534 4.208 204.509 4.55267 205.066 5.242C205.638 5.91667 205.807 6.96533 205.572 8.388L204.89 12.172C204.656 13.58 204.201 14.57 203.526 15.142C202.852 15.714 201.81 16 200.402 16H196.64C195.672 16 194.939 15.9413 194.44 15.824C193.942 15.692 193.458 15.4207 192.988 15.01L192.196 19.52H187.598L190.304 4.208H194.154L194.286 5.528C195.02 4.956 195.65 4.59667 196.178 4.45C196.706 4.28867 197.498 4.208 198.554 4.208H202.14ZM200.864 8.96C200.938 8.50533 200.901 8.19 200.754 8.014C200.608 7.838 200.307 7.75 199.852 7.75H196.442C195.724 7.75 195.137 7.91133 194.682 8.234L194.11 8.674L193.604 11.556L194.022 11.974C194.345 12.2967 194.895 12.458 195.672 12.458H199.126C199.581 12.458 199.896 12.3847 200.072 12.238C200.248 12.0767 200.373 11.7687 200.446 11.314L200.864 8.96ZM220.39 4.208H224.262L222.172 16H217.75L218.916 9.356L209.742 16H206.068L208.158 4.208H212.58L211.436 10.676L220.39 4.208Z" fill="black"/>
</svg>
