<svg width="209" height="19" viewBox="0 0 209 19" fill="none" xmlns="http://www.w3.org/2000/svg">
<g clip-path="url(#clip0_12_1234)">
<path d="M18.2033 0H10.542V7.53344H18.1726C19.4597 7.53344 20.5017 8.5621 20.5017 9.8328C20.5017 11.1035 19.4597 12.1322 18.1726 12.1322H17.713V17.9411H18.2033C23.0452 17.9713 27.2742 14.0685 27.2742 8.98567C27.2742 3.78185 22.9533 0 18.2033 0Z" fill="#D81921"/>
<path d="M5.91452 0H0V5.83917L4.65806 10.4379H0V17.9713H7.63065V13.3726L12.2887 17.9713H18.1726V12.1322L5.91452 0Z" fill="white"/>
<path d="M32.5146 16.4892V2.08789H36.3759V7.8363H42.5356V2.08789H46.3969V16.4892H42.5356V11.4366H36.3759V16.4589H32.5146V16.4892Z" fill="white"/>
<path d="M48.2969 10.6495C48.2969 9.77213 48.4807 8.95525 48.8178 8.19888C49.1549 7.44251 49.6146 6.80716 50.2275 6.26257C50.8098 5.71799 51.5146 5.29442 52.3114 4.96162C53.1082 4.65907 53.9356 4.47754 54.8549 4.47754C55.7436 4.47754 56.6017 4.62881 57.3985 4.96162C58.1953 5.26416 58.9001 5.71799 59.4824 6.26257C60.0646 6.80716 60.5549 7.47276 60.892 8.19888C61.2291 8.95525 61.413 9.77213 61.413 10.6495C61.413 11.5269 61.2291 12.3438 60.892 13.1002C60.5549 13.8565 60.0953 14.4919 59.4824 15.0365C58.9001 15.581 58.1953 16.0046 57.3985 16.3374C56.6017 16.64 55.7436 16.8215 54.8549 16.8215C53.9356 16.8215 53.1082 16.6702 52.3114 16.3374C51.5146 16.0349 50.8404 15.581 50.2275 15.0365C49.6453 14.4919 49.1549 13.8263 48.8178 13.1002C48.4807 12.3438 48.2969 11.5269 48.2969 10.6495ZM54.8549 13.4935C55.2533 13.4935 55.5904 13.433 55.9275 13.2817C56.2646 13.1304 56.5404 12.9489 56.7856 12.6766C57.0307 12.4345 57.2146 12.132 57.3678 11.7689C57.4904 11.4059 57.5517 11.0428 57.5517 10.6193C57.5517 10.1957 57.4904 9.83263 57.3678 9.46958C57.2453 9.10652 57.0614 8.80397 56.7856 8.56193C56.5404 8.3199 56.234 8.10811 55.9275 7.95684C55.5904 7.80556 55.2227 7.74506 54.8549 7.74506C54.4566 7.74506 54.0888 7.80556 53.7517 7.95684C53.4146 8.10811 53.1388 8.28964 52.8936 8.56193C52.6485 8.80397 52.4646 9.10652 52.3114 9.46958C52.1888 9.83263 52.1275 10.1957 52.1275 10.6193C52.1275 11.0428 52.1888 11.4059 52.3114 11.7689C52.434 12.132 52.6178 12.4345 52.8936 12.6766C53.1388 12.9186 53.4146 13.1304 53.7517 13.2817C54.0888 13.433 54.4259 13.4935 54.8549 13.4935Z" fill="white"/>
<path d="M62.792 18.9998V11.1638C62.792 10.1957 62.8839 9.34856 63.0984 8.62244C63.313 7.89633 63.5888 7.29123 63.9565 6.80716C64.5388 6.05079 65.3049 5.47595 66.1936 5.08263C67.113 4.68932 68.1243 4.47754 69.2275 4.47754C70.1468 4.47754 70.9743 4.62881 71.771 4.93136C72.5372 5.23391 73.242 5.65748 73.7936 6.17181C74.3759 6.71639 74.8049 7.35174 75.142 8.10811C75.4791 8.86448 75.6323 9.71162 75.6323 10.6193C75.6323 11.5572 75.4791 12.374 75.1726 13.1304C74.8662 13.8868 74.4678 14.5221 73.9468 15.0667C73.4259 15.6113 72.813 16.0046 72.1388 16.3072C71.4339 16.6097 70.6984 16.7307 69.9017 16.7307C69.0436 16.7307 68.3081 16.6097 67.7565 16.3374C67.2049 16.0651 66.7759 15.7928 66.5001 15.5205V18.9998H62.792ZM69.1355 13.433C69.9017 13.433 70.5452 13.1607 71.0355 12.6463C71.5259 12.132 71.8017 11.4361 71.8017 10.6193C71.8017 9.80238 71.5565 9.13678 71.0355 8.62244C70.5452 8.10811 69.9017 7.86607 69.1355 7.86607C68.3694 7.86607 67.7259 8.10811 67.2355 8.59219C66.7452 9.07627 66.4694 9.74187 66.4694 10.6193C66.4694 11.0126 66.5307 11.3756 66.6533 11.7387C66.7759 12.0715 66.9597 12.374 67.2049 12.6161C67.4501 12.8581 67.7259 13.0699 68.063 13.2212C68.4001 13.3724 68.7372 13.433 69.1355 13.433Z" fill="white"/>
<path d="M88.5951 13.2818H90.2806V19.0302H86.8177V16.4888H79.5855V19.0302H76.1226V13.2818H77.5322C77.6855 12.7069 77.8693 12.0111 78.0532 11.2547C78.2371 10.4681 78.4209 9.71169 78.6355 8.95532L79.6774 4.59863H88.6258V13.2818H88.5951ZM82.0677 9.65118C81.8838 10.4076 81.7306 11.1034 81.608 11.7388C81.4548 12.3741 81.3629 12.8884 81.271 13.2818H84.8258V7.74513H82.5274L82.0677 9.65118Z" fill="white"/>
<path d="M181.328 19.0008V11.1648C181.328 10.1967 181.42 9.34953 181.634 8.62342C181.849 7.89731 182.124 7.29221 182.492 6.80813C183.074 6.05176 183.841 5.47692 184.729 5.08361C185.649 4.6903 186.66 4.47852 187.763 4.47852C188.682 4.47852 189.51 4.62979 190.307 4.93234C191.073 5.23488 191.778 5.65845 192.329 6.17278C192.911 6.71737 193.341 7.35272 193.678 8.10909C194.015 8.86546 194.168 9.71259 194.168 10.6202C194.168 11.5581 194.015 12.375 193.708 13.1314C193.402 13.8878 193.003 14.5231 192.482 15.0677C191.961 15.6123 191.349 16.0056 190.674 16.3081C189.97 16.6107 189.234 16.7317 188.437 16.7317C187.579 16.7317 186.844 16.6107 186.292 16.3384C185.741 16.0661 185.312 15.7938 185.036 15.5215V19.0008H181.328ZM187.671 13.4339C188.437 13.4339 189.081 13.1616 189.571 12.6473C190.061 12.133 190.337 11.4371 190.337 10.6202C190.337 9.80336 190.092 9.13775 189.571 8.62342C189.081 8.10909 188.437 7.86705 187.671 7.86705C186.905 7.86705 186.262 8.10909 185.771 8.59317C185.281 9.07724 185.005 9.74285 185.005 10.6202C185.005 11.0135 185.066 11.3766 185.189 11.7397C185.312 12.0725 185.495 12.375 185.741 12.6171C185.986 12.8591 186.262 13.0709 186.599 13.2221C186.936 13.3734 187.273 13.4339 187.671 13.4339Z" fill="#D81921"/>
<path d="M109.189 19.0003H105.328V16.4589H96.3794V19.0003H92.5181V12.8586H94.2955L97.2374 2.11816H107.35V12.8586H107.412H109.189V19.0003ZM98.3406 12.8586H103.489V5.62772H100.241L98.3406 12.8586Z" fill="#D81921"/>
<path d="M122.275 12.1632C123.592 7.17119 120.191 4.47852 116.728 4.47852C113.633 4.47852 110.384 6.50559 110.384 10.6202C110.384 11.5884 110.537 12.4658 110.875 13.2221C111.212 13.9785 111.641 14.6441 112.192 15.1585C112.744 15.6728 113.418 16.0963 114.184 16.3686C114.95 16.6409 115.747 16.7922 116.605 16.7922C117.31 16.7922 117.923 16.7317 118.505 16.6409C119.088 16.5502 119.578 16.4292 120.038 16.2779C120.467 16.1266 120.834 16.0056 121.11 15.8543C121.386 15.703 121.6 15.6123 121.723 15.5215L120.436 13.0104C120.405 13.0406 120.313 13.1011 120.129 13.1616C119.946 13.2524 119.731 13.3129 119.486 13.4037C119.21 13.4944 118.904 13.5549 118.567 13.6155C118.199 13.676 117.831 13.7062 117.433 13.7062C116.912 13.7062 116.452 13.6457 116.084 13.5549C115.717 13.4642 115.41 13.3432 115.165 13.1919C114.92 13.0406 114.736 12.8893 114.613 12.7078C114.491 12.5263 114.399 12.3448 114.368 12.1632H115.165H122.275ZM114.184 9.80336C114.246 8.86546 114.828 7.32246 116.697 7.32246C118.597 7.32246 119.179 8.8352 119.21 9.80336H118.444H114.92H114.184Z" fill="#D81921"/>
<path d="M126.166 4.59863L122.949 16.4888H126.963L129.108 7.92666H131.07V16.4888H134.808V4.59863H126.166Z" fill="#D81921"/>
<path d="M137.597 16.4889V4.81055H141.336V12.1927L147.097 4.81055H150.162V16.4889H146.423V10.1959L141.336 16.4889H137.597Z" fill="#D81921"/>
<path d="M166.403 16.4889V4.81055H170.142V12.1927L175.903 4.81055H178.998V16.4889H175.26V10.1959L170.173 16.4889H166.403Z" fill="#D81921"/>
<path d="M196.436 16.4889V4.81055H200.175V12.1927L205.936 4.81055H209.001V16.4889H205.262V10.1959L200.175 16.4889H196.436Z" fill="#D81921"/>
<path d="M152.95 4.44824H158.987C162.634 4.44824 163.768 5.80971 163.768 7.86703C163.768 9.59155 162.481 10.2572 162.113 10.4084C162.511 10.5597 164.228 11.0135 164.228 13.1314C164.228 14.9164 163.553 16.6712 159.079 16.6712H152.981V4.44824H152.95ZM158.957 9.25875C159.508 9.25875 159.845 9.13773 160.06 8.92595C160.244 8.68391 160.336 8.44187 160.336 8.16958C160.336 8.04856 160.305 7.92754 160.244 7.80652C160.182 7.6855 160.091 7.56448 159.907 7.47372C159.753 7.38296 159.539 7.29219 159.232 7.23168C158.957 7.17117 158.589 7.14092 158.129 7.14092H156.597V9.25875H158.957ZM156.628 13.9785H158.374C159.263 13.9785 159.876 13.8877 160.182 13.7062C160.489 13.5247 160.642 13.2524 160.642 12.9196C160.642 12.617 160.55 12.375 160.336 12.133C160.121 11.8909 159.692 11.8002 159.079 11.8002H156.628V13.9785Z" fill="#D81921"/>
</g>
<defs>
<clipPath id="clip0_12_1234">
<rect width="209" height="19" fill="white"/>
</clipPath>
</defs>
</svg>
