<svg width="318" height="29" viewBox="0 0 318 29" fill="none" xmlns="http://www.w3.org/2000/svg">
<g clip-path="url(#clip0_12_50)">
<path d="M27.6969 0H16.04V11.4984H27.6503C29.6087 11.4984 31.194 13.0685 31.194 15.008C31.194 16.9475 29.6087 18.5175 27.6503 18.5175H26.9509V27.3838H27.6969C35.0641 27.4299 41.4987 21.4729 41.4987 13.715C41.4987 5.77229 34.9242 0 27.6969 0Z" fill="#D81921"/>
<path d="M8.99912 0H0V8.91242L7.08739 15.9315H0V27.4299H11.6103V20.4108L18.6977 27.4299H27.6501V18.5175L8.99912 0Z" fill="#050505"/>
<path d="M49.4717 25.1672V3.18628H55.3468V11.9602H64.7189V3.18628H70.594V25.1672H64.7189V17.4554H55.3468V25.121H49.4717V25.1672Z" fill="black"/>
<path d="M73.4849 16.2547C73.4849 14.9156 73.7646 13.6687 74.2775 12.5143C74.7904 11.3598 75.4898 10.3901 76.4224 9.55887C77.3083 8.72766 78.3808 8.08117 79.5931 7.5732C80.8054 7.11142 82.0643 6.83435 83.4632 6.83435C84.8154 6.83435 86.1209 7.06524 87.3332 7.5732C88.5456 8.03499 89.618 8.72766 90.5039 9.55887C91.3898 10.3901 92.1359 11.406 92.6488 12.5143C93.1617 13.6687 93.4415 14.9156 93.4415 16.2547C93.4415 17.5939 93.1617 18.8407 92.6488 19.9952C92.1359 21.1496 91.4365 22.1194 90.5039 22.9506C89.618 23.7818 88.5456 24.4283 87.3332 24.9363C86.1209 25.398 84.8154 25.6751 83.4632 25.6751C82.0643 25.6751 80.8054 25.4442 79.5931 24.9363C78.3808 24.4745 77.3549 23.7818 76.4224 22.9506C75.5365 22.1194 74.7904 21.1035 74.2775 19.9952C73.7646 18.8407 73.4849 17.5939 73.4849 16.2547ZM83.4632 20.5955C84.0693 20.5955 84.5822 20.5031 85.0951 20.2723C85.608 20.0414 86.0277 19.7643 86.4007 19.3487C86.7737 18.9793 87.0535 18.5175 87.2866 17.9633C87.4731 17.4092 87.5664 16.8551 87.5664 16.2086C87.5664 15.5621 87.4731 15.0079 87.2866 14.4538C87.1001 13.8996 86.8203 13.4379 86.4007 13.0684C86.0277 12.699 85.5614 12.3758 85.0951 12.1449C84.5822 11.914 84.0227 11.8216 83.4632 11.8216C82.857 11.8216 82.2975 11.914 81.7846 12.1449C81.2717 12.3758 80.852 12.6528 80.479 13.0684C80.106 13.4379 79.8262 13.8996 79.5931 14.4538C79.4066 15.0079 79.3133 15.5621 79.3133 16.2086C79.3133 16.8551 79.4066 17.4092 79.5931 17.9633C79.7796 18.5175 80.0594 18.9793 80.479 19.3487C80.852 19.7181 81.2717 20.0414 81.7846 20.2723C82.2975 20.5031 82.8104 20.5955 83.4632 20.5955Z" fill="black"/>
<path d="M95.5396 29V17.0398C95.5396 15.5621 95.6794 14.2691 96.0058 13.1608C96.3322 12.0525 96.7519 11.1289 97.3114 10.3901C98.1973 9.23562 99.363 8.35824 100.715 7.75792C102.114 7.1576 103.653 6.83435 105.331 6.83435C106.73 6.83435 107.989 7.06524 109.201 7.52703C110.367 7.98881 111.44 8.63531 112.279 9.42034C113.165 10.2515 113.818 11.2213 114.33 12.3758C114.843 13.5302 115.077 14.8232 115.077 16.2086C115.077 17.6401 114.843 18.8869 114.377 20.0414C113.911 21.1958 113.305 22.1656 112.512 22.9968C111.719 23.828 110.787 24.4283 109.761 24.8901C108.689 25.3519 107.569 25.5366 106.357 25.5366C105.052 25.5366 103.933 25.3519 103.093 24.9363C102.254 24.5207 101.601 24.1051 101.181 23.6894V29H95.5396ZM105.191 20.5031C106.357 20.5031 107.336 20.0875 108.082 19.3025C108.828 18.5175 109.248 17.4554 109.248 16.2086C109.248 14.9617 108.875 13.9458 108.082 13.1608C107.336 12.3758 106.357 12.0063 105.191 12.0063C104.026 12.0063 103.047 12.3758 102.301 13.1146C101.555 13.8535 101.135 14.8694 101.135 16.2086C101.135 16.8089 101.228 17.363 101.415 17.9172C101.601 18.4251 101.881 18.8869 102.254 19.2563C102.627 19.6258 103.047 19.949 103.559 20.1799C104.072 20.4108 104.585 20.5031 105.191 20.5031Z" fill="black"/>
<path d="M134.8 20.2722H137.365V29.0461H132.096V25.1671H121.092V29.0461H115.823V20.2722H117.968C118.201 19.3948 118.481 18.3327 118.76 17.1783C119.04 15.9776 119.32 14.8232 119.646 13.6687L121.232 7.01904H134.847V20.2722H134.8ZM124.868 14.7308C124.589 15.8853 124.356 16.9474 124.169 17.9171C123.936 18.8869 123.796 19.6719 123.656 20.2722H129.065V11.8216H125.568L124.868 14.7308Z" fill="black"/>
<path d="M275.895 29V17.0398C275.895 15.5621 276.035 14.2691 276.361 13.1608C276.688 12.0525 277.107 11.1289 277.667 10.3901C278.553 9.23562 279.718 8.35824 281.071 7.75792C282.469 7.1576 284.008 6.83435 285.687 6.83435C287.086 6.83435 288.345 7.06524 289.557 7.52703C290.723 7.98881 291.795 8.63531 292.634 9.42034C293.52 10.2515 294.173 11.2213 294.686 12.3758C295.199 13.5302 295.432 14.8232 295.432 16.2086C295.432 17.6401 295.199 18.8869 294.733 20.0414C294.266 21.1958 293.66 22.1656 292.867 22.9968C292.075 23.828 291.142 24.4283 290.116 24.8901C289.044 25.3519 287.925 25.5366 286.713 25.5366C285.407 25.5366 284.288 25.3519 283.449 24.9363C282.609 24.5207 281.957 24.1051 281.537 23.6894V29H275.895ZM285.547 20.5031C286.713 20.5031 287.692 20.0875 288.438 19.3025C289.184 18.5175 289.604 17.4554 289.604 16.2086C289.604 14.9617 289.23 13.9458 288.438 13.1608C287.692 12.3758 286.713 12.0063 285.547 12.0063C284.381 12.0063 283.402 12.3758 282.656 13.1146C281.91 13.8535 281.49 14.8694 281.49 16.2086C281.49 16.8089 281.584 17.363 281.77 17.9172C281.957 18.4251 282.236 18.8869 282.609 19.2563C282.982 19.6258 283.402 19.949 283.915 20.1799C284.428 20.4108 284.941 20.5031 285.547 20.5031Z" fill="#D81921"/>
<path d="M166.134 28.9999H160.259V25.121H146.644V28.9999H140.769V19.6257H143.473L147.949 3.23242H163.336V19.6257H163.43H166.134V28.9999ZM149.628 19.6257H157.461V8.58911H152.519L149.628 19.6257Z" fill="#D81921"/>
<path d="M186.044 18.5637C188.049 10.9442 182.873 6.83435 177.605 6.83435C172.895 6.83435 167.953 9.9283 167.953 16.2086C167.953 17.6863 168.186 19.0254 168.699 20.1799C169.212 21.3344 169.864 22.3503 170.704 23.1353C171.543 23.9203 172.569 24.5668 173.734 24.9824C174.9 25.398 176.112 25.6289 177.418 25.6289C178.49 25.6289 179.423 25.5366 180.309 25.398C181.195 25.2595 181.941 25.0748 182.64 24.8439C183.293 24.613 183.853 24.4283 184.272 24.1974C184.692 23.9665 185.018 23.828 185.205 23.6894L183.246 19.8566C183.2 19.9028 183.06 19.9952 182.78 20.0875C182.5 20.2261 182.174 20.3184 181.801 20.457C181.381 20.5955 180.915 20.6879 180.402 20.7802C179.843 20.8726 179.283 20.9187 178.677 20.9187C177.884 20.9187 177.185 20.8264 176.625 20.6879C176.066 20.5493 175.6 20.3646 175.227 20.1337C174.854 19.9028 174.574 19.6719 174.387 19.3949C174.201 19.1178 174.061 18.8407 174.014 18.5637H175.227H186.044ZM173.734 14.9617C173.828 13.5302 174.714 11.1751 177.558 11.1751C180.449 11.1751 181.335 13.484 181.381 14.9617H180.216H174.854H173.734Z" fill="#D81921"/>
<path d="M191.966 7.01904L187.07 25.1671H193.178L196.442 12.0987H199.426V25.1671H205.115V7.01904H191.966Z" fill="#D81921"/>
<path d="M209.358 25.1671V7.34229H215.046V18.6098L223.812 7.34229H228.475V25.1671H222.787V15.562L215.046 25.1671H209.358Z" fill="#D81921"/>
<path d="M253.188 25.1671V7.34229H258.876V18.6098L267.642 7.34229H272.351V25.1671H266.663V15.562L258.923 25.1671H253.188Z" fill="#D81921"/>
<path d="M298.883 25.1671V7.34229H304.571V18.6098L313.337 7.34229H318V25.1671H312.312V15.562L304.571 25.1671H298.883Z" fill="#D81921"/>
<path d="M232.718 6.78821H241.904C247.453 6.78821 249.178 8.86623 249.178 12.0064C249.178 14.6385 247.219 15.6545 246.66 15.8853C247.266 16.1162 249.877 16.8089 249.877 20.0414C249.877 22.7659 248.851 25.4443 242.044 25.4443H232.765V6.78821H232.718ZM241.857 14.1306C242.697 14.1306 243.209 13.9459 243.536 13.6226C243.816 13.2532 243.956 12.8837 243.956 12.4681C243.956 12.2834 243.909 12.0987 243.816 11.914C243.722 11.7293 243.582 11.5446 243.303 11.406C243.07 11.2675 242.743 11.129 242.277 11.0366C241.857 10.9443 241.298 10.8981 240.598 10.8981H238.267V14.1306H241.857ZM238.314 21.3344H240.971C242.324 21.3344 243.256 21.1959 243.722 20.9188C244.189 20.6417 244.422 20.2261 244.422 19.7181C244.422 19.2564 244.282 18.8869 243.956 18.5175C243.629 18.1481 242.976 18.0095 242.044 18.0095H238.314V21.3344Z" fill="#D81921"/>
</g>
<defs>
<clipPath id="clip0_12_50">
<rect width="318" height="29" fill="white"/>
</clipPath>
</defs>
</svg>
